<?xml version="1.0" encoding="UTF-8"?><svg viewBox="0 0 256 256" xmlns="http://www.w3.org/2000/svg"><rect x="-1" y="-1" width="512" height="512" fill="none"/><g stroke="null"><path d="m128 7.5c-66.454 0-120 53.769-120 120.5 0 27.989 9.6995 53.877 25.385 74.154h-25.385v18.538h55.385v-55.615h-18.462v21.145c-11.791-16.619-18.462-36.498-18.462-58.222 0-56.557 45.216-101.96 101.54-101.96 16.623 0 32.308 3.5846 46.154 11.007v-20.276c-13.846-5.576-29.531-9.2692-46.154-9.2692zm64.615 27.808v55.615h18.462v-21.145c11.791 16.619 18.462 36.498 18.462 58.222 0 56.557-45.216 101.96-101.54 101.96-16.623 0-32.308-3.5846-46.154-11.007v20.276c13.846 5.576 29.531 9.2692 46.154 9.2692 66.454 0 120-53.769 120-120.5 0-27.989-9.6995-53.877-25.385-74.154h25.385v-18.538h-55.385zm-73.846 18.538v18.828c-15.541 2.3173-27.692 15.931-27.692 32.153 0 17.814 14.567 32.442 32.308 32.442h9.2308c8.0769 0 13.846 5.7933 13.846 13.904s-5.7692 13.904-13.846 13.904h-32.308v18.538h18.462v18.538h18.462v-18.828c15.541-2.3173 27.692-15.931 27.692-32.153 0-17.814-14.567-32.442-32.308-32.442h-9.2308c-8.0769 0-13.846-5.7933-13.846-13.904s5.7692-13.904 13.846-13.904h32.308v-18.538h-18.462v-18.538h-18.462z" fill="#00BE28" stroke="null"/></g></svg>