<?xml version="1.0" encoding="utf-8"?>
<!-- Generator: Adobe Illustrator 24.3.0, SVG Export Plug-In . SVG Version: 6.00 Build 0)  -->
<svg version="1.1" id="Layer_1" xmlns="http://www.w3.org/2000/svg" xmlns:xlink="http://www.w3.org/1999/xlink" x="0px" y="0px"
	 viewBox="0 0 151 91" enable-background="new 0 0 151 91" xml:space="preserve">
<g>
	<g>
		<rect x="0.5" y="0.5" fill="#F7F8F9" stroke="#D2D2D2" stroke-miterlimit="10" width="150" height="90"/>
	</g>
	<g>
		<g>
			<g>
				<path fill="#BDC5CB" d="M10.6,44.5l3-3c0.1-0.1,0.1-0.2,0.1-0.3c0-0.1,0-0.2-0.1-0.3l-0.3-0.3c-0.1-0.1-0.2-0.1-0.3-0.1
					s-0.2,0-0.3,0.1l-3.6,3.6C9,44.3,9,44.4,9,44.5c0,0.1,0,0.2,0.1,0.3l3.6,3.6c0.1,0.1,0.2,0.1,0.3,0.1c0.1,0,0.2,0,0.3-0.1
					l0.3-0.3c0.2-0.2,0.2-0.5,0-0.6L10.6,44.5z"/>
			</g>
		</g>
		<g>
			<g>
				<path fill="#BDC5CB" d="M140.4,44.5l-3,3c-0.1,0.1-0.1,0.2-0.1,0.3c0,0.1,0,0.2,0.1,0.3l0.3,0.3c0.1,0.1,0.2,0.1,0.3,0.1
					c0.1,0,0.2,0,0.3-0.1l3.6-3.6c0.1-0.1,0.1-0.2,0.1-0.3c0-0.1,0-0.2-0.1-0.3l-3.6-3.6c-0.1-0.1-0.2-0.1-0.3-0.1
					c-0.1,0-0.2,0-0.3,0.1l-0.3,0.3c-0.2,0.2-0.2,0.5,0,0.6L140.4,44.5z"/>
			</g>
		</g>
	</g>
	<g>
		<rect x="17" y="34.5" fill="#BDC5CB" width="27" height="20"/>
		<rect x="47" y="34.5" fill="#BDC5CB" width="27" height="20"/>
		<rect x="77" y="34.5" fill="#BDC5CB" width="27" height="20"/>
		<rect x="107" y="34.5" fill="#BDC5CB" width="27" height="20"/>
	</g>
	<circle fill="#D8DCDE" cx="70" cy="61.5" r="2"/>
	<circle fill="#A1AEB7" cx="75.5" cy="61.5" r="2"/>
	<circle fill="#D8DCDE" cx="81" cy="61.5" r="2"/>
</g>
<g>
</g>
<g>
</g>
<g>
</g>
<g>
</g>
<g>
</g>
<g>
</g>
</svg>
