<?xml version="1.0" encoding="utf-8"?>
<!-- Generator: Adobe Illustrator 24.3.0, SVG Export Plug-In . SVG Version: 6.00 Build 0)  -->
<svg version="1.1" id="Layer_1" xmlns="http://www.w3.org/2000/svg" xmlns:xlink="http://www.w3.org/1999/xlink" x="0px" y="0px"
	 viewBox="0 0 300 300" enable-background="new 0 0 300 300" xml:space="preserve">
<g>
	<path fill="#444444" d="M234.3,17.4H101.7c-14.4,0-26.1,11.7-26.1,26.1v9.9h-9.9c-14.4,0-26.1,11.7-26.1,26.1v177
		c0,14.4,11.7,26.1,26.1,26.1h132.6c14.4,0,26.1-11.7,26.1-26.1v-9.9h9.9c14.4,0,26.1-11.7,26.1-26.1v-177
		C260.1,29.1,248.4,17.4,234.3,17.4z M204.6,256.5c0,3.6-3,6.6-6.6,6.6H65.7c-3.6,0-6.6-3-6.6-6.6v-177c0-3.6,3-6.6,6.6-6.6h132.6
		c3.6,0,6.6,3,6.6,6.6v177H204.6z M240.6,220.5c0,3.6-3,6.6-6.6,6.6h-9.9V79.5c0-14.4-11.7-26.1-26.1-26.1H95.1v-9.9
		c0-3.6,3-6.6,6.6-6.6h132.6c3.6,0,6.6,3,6.6,6.6v177H240.6z"/>
</g>
</svg>
