<svg xmlns="http://www.w3.org/2000/svg" xmlns:xlink="http://www.w3.org/1999/xlink" version="1.1" id="Layer_1" x="0px" y="0px" viewBox="0 0 288 288" enable-background="new 0 0 288 288" xml:space="preserve">
<path fill="#28B473" d="M237.7,0H50.3C22.5,0,0,22.5,0,50.3v187.4C0,265.5,22.5,288,50.3,288h187.4c27.8,0,50.3-22.5,50.3-50.3V50.3  C288,22.5,265.5,0,237.7,0z M82.5,197.4c0,6.4-5.2,11.5-11.5,11.5H50c-6.4,0-11.5-5.2-11.5-11.5V90.6c0-6.4,5.2-11.5,11.5-11.5h21  c6.4,0,11.5,5.2,11.5,11.5V197.4z M194.2,217.5c0,6.4-5.2,11.5-11.5,11.5h-77.4c-6.4,0-11.5-5.2-11.5-11.5v-147  c0-6.4,5.2-11.5,11.5-11.5h77.4c6.4,0,11.5,5.2,11.5,11.5V217.5z M249.5,197.4c0,6.4-5.2,11.5-11.5,11.5h-21  c-6.4,0-11.5-5.2-11.5-11.5V90.6c0-6.4,5.2-11.5,11.5-11.5h21c6.4,0,11.5,5.2,11.5,11.5V197.4z"/>
</svg>