<svg xmlns="http://www.w3.org/2000/svg" xmlns:xlink="http://www.w3.org/1999/xlink" version="1.1" id="Layer_1" x="0px" y="0px" viewBox="0 0 395.8 71.5" enable-background="new 0 0 395.8 71.5" xml:space="preserve">
<g>
	<g>
		<path fill="#FFFFFF" d="M93.1,53.6c-0.3-0.3-0.5-0.9-0.5-1.7V13.7c0-1.2,1-1.7,3.1-1.7h1.9c1.1,0,1.9,0.1,2.3,0.4    c0.5,0.3,0.7,0.7,0.7,1.3v33.7h10.2c0.6,0,1,0.2,1.2,0.6c0.2,0.4,0.4,1.1,0.4,1.9v1.6c0,0.9-0.1,1.5-0.4,2    c-0.2,0.4-0.6,0.6-1.2,0.6H94.6C93.9,54.1,93.4,53.9,93.1,53.6z"/>
		<path fill="#FFFFFF" d="M118,50.3c-2-2.8-3.1-6.7-3.1-11.9c0-5.2,1-9.2,3-12c2-2.8,5-4.1,9-4.1s6.9,1.4,9,4.1c2,2.8,3,6.8,3,12    c0,5.2-1,9.2-3.1,12c-2,2.7-5,4.1-8.9,4.1C123,54.5,120.1,53.1,118,50.3z M130.2,46.1c0.7-1.6,1-4.1,1-7.7c0-3.6-0.3-6.2-1-7.7    c-0.7-1.5-1.8-2.3-3.3-2.3c-1.5,0-2.6,0.8-3.3,2.3c-0.7,1.5-1,4.1-1,7.7c0,3.6,0.3,6.2,1,7.7c0.7,1.6,1.8,2.3,3.3,2.3    C128.5,48.4,129.6,47.6,130.2,46.1z"/>
		<path fill="#FFFFFF" d="M145.7,64.8c-1.9-1.3-2.8-3.3-2.8-5.9c0-1.6,0.4-3.1,1.2-4.3c0.8-1.2,2-2.2,3.4-2.9v-0.2    c-0.8-0.5-1.3-1.1-1.7-1.9c-0.4-0.8-0.6-1.7-0.6-2.6c0-2.3,1-4.1,2.9-5.5c-2.9-1.6-4.4-4.5-4.4-8.6c0-3.4,0.9-6,2.8-7.8    c1.9-1.8,4.5-2.7,7.7-2.7c1.3,0,2.5,0.1,3.5,0.4h8.2c0.5,0,0.9,0.2,1.1,0.6c0.2,0.4,0.3,1,0.3,1.8v0.9c0,0.8-0.1,1.4-0.3,1.7    c-0.2,0.4-0.5,0.5-1,0.5c-1.1,0-1.9-0.1-2.5-0.2l-0.1,0.2c0.8,1.3,1.2,2.9,1.2,4.7c0,3-0.9,5.4-2.6,7.1c-1.7,1.7-4.1,2.6-7,2.7    c-2.3,0.1-3.5,1.1-3.5,2.8c0,1,0.4,1.8,1.3,2.1c0.8,0.4,2.2,0.7,4,1.1c0.4,0,1,0.1,1.8,0.3c2.4,0.5,4.2,1.3,5.6,2.6    c1.4,1.2,2.1,3.1,2.1,5.5c0,3-1.1,5.4-3.2,7.1c-2.2,1.7-5.2,2.5-9.1,2.5C150.4,66.8,147.6,66.1,145.7,64.8z M158.6,60.3    c0.9-0.6,1.3-1.5,1.3-2.6c0-1.2-0.5-2.1-1.4-2.5c-0.9-0.4-2.4-0.8-4.4-1.1c-1.1-0.2-1.9-0.3-2.3-0.4c-0.8,0.4-1.4,1-1.8,1.7    c-0.4,0.7-0.7,1.5-0.7,2.4c0,1.2,0.5,2,1.4,2.6c0.9,0.6,2.2,0.9,3.9,0.9C156.5,61.3,157.8,61,158.6,60.3z M157.2,36.5    c0.7-0.7,1.1-2,1.1-3.8c0-2-0.4-3.3-1.1-4.1c-0.7-0.7-1.7-1.1-3-1.1c-1.2,0-2.2,0.4-2.9,1.1c-0.7,0.7-1,2.1-1,4.1    c0,3.3,1.3,4.9,4,4.9C155.4,37.6,156.4,37.2,157.2,36.5z"/>
		<path fill="#FFFFFF" d="M172.5,50.3c-2-2.8-3.1-6.7-3.1-11.9c0-5.2,1-9.2,3-12c2-2.8,5-4.1,9-4.1s6.9,1.4,9,4.1c2,2.8,3,6.8,3,12    c0,5.2-1,9.2-3.1,12c-2,2.7-5,4.1-8.9,4.1C177.5,54.5,174.5,53.1,172.5,50.3z M184.7,46.1c0.7-1.6,1-4.1,1-7.7    c0-3.6-0.3-6.2-1-7.7c-0.7-1.5-1.8-2.3-3.3-2.3c-1.5,0-2.6,0.8-3.3,2.3c-0.7,1.5-1,4.1-1,7.7c0,3.6,0.3,6.2,1,7.7    c0.7,1.6,1.8,2.3,3.3,2.3C183,48.4,184,47.6,184.7,46.1z"/>
		<path fill="#FFFFFF" d="M209,49.3c-2.5-3.5-3.8-8.9-3.8-16.3c0-7.2,1.3-12.6,4-16.1c2.6-3.5,6.7-5.3,12.1-5.3c2.2,0,4,0.3,5.5,0.8    c0.6,0.2,1,0.5,1.3,0.9c0.2,0.4,0.3,0.9,0.3,1.6c0,1.2-0.2,2.3-0.7,3.4c-0.5,1.1-1.1,1.4-1.8,1.1c-1.4-0.6-2.8-0.8-4.3-0.8    c-2.8,0-4.8,1.2-6.1,3.6c-1.3,2.4-2,6-2,10.9c0,4.9,0.7,8.6,2,11c1.3,2.4,3.5,3.6,6.3,3.6c0.9,0,1.6-0.1,2.3-0.2    c0.7-0.2,1.4-0.4,2.2-0.7c0.2-0.1,0.4-0.1,0.5-0.1c0.7,0,1.2,0.5,1.6,1.4c0.4,0.9,0.5,2,0.5,3.3c0,0.6-0.1,1-0.3,1.4    c-0.2,0.4-0.7,0.7-1.3,0.9c-0.7,0.3-1.6,0.5-2.7,0.7c-1.1,0.2-2.3,0.3-3.5,0.3C215.6,54.5,211.5,52.8,209,49.3z"/>
		<path fill="#FFFFFF" d="M234.4,52c-1.5-1.7-2.2-3.9-2.2-6.9c0-3.4,1.2-6.1,3.6-8.1c2.4-2,6.1-3,11.1-3v-1.6c0-2.7-1.4-4.1-4.2-4.1    c-1.1,0-2,0.1-2.8,0.4c-0.8,0.3-1.7,0.6-2.6,1.1c-0.5,0.3-0.9,0.5-1.1,0.5c-0.5,0-1.1-0.5-1.8-1.7c-0.7-1.1-1-1.9-1-2.5    c0-0.6,0.5-1.2,1.4-1.8c0.9-0.6,2.2-1,3.7-1.4c1.5-0.4,3.1-0.5,4.7-0.5c3.8,0,6.7,0.9,8.5,2.6c1.8,1.8,2.8,4.2,2.8,7.3v11.9    c0,2.7,0.1,4.7,0.4,6c0.2,1.3,0.4,2,0.4,2.3c0,0.6-0.7,1-2,1.3c-1.3,0.3-2.5,0.5-3.5,0.5c-0.6,0-1-0.3-1.3-0.8    c-0.3-0.5-0.6-1.3-0.8-2.5c-0.7,1-1.6,1.9-2.8,2.6c-1.2,0.7-2.5,1-4.1,1C238,54.5,235.9,53.7,234.4,52z M245.1,48    c0.7-0.4,1.3-1,1.8-1.8v-7.3c-5.1,0-7.7,1.9-7.7,5.7c0,1.3,0.3,2.3,0.9,3c0.6,0.7,1.4,1.1,2.6,1.1C243.6,48.7,244.4,48.4,245.1,48    z"/>
		<path fill="#FFFFFF" d="M261.8,52.4V32.6c0-2.7-0.1-4.6-0.4-5.9c-0.2-1.2-0.4-2-0.4-2.3c0-0.6,0.7-1,2-1.3    c1.3-0.3,2.5-0.4,3.5-0.4c0.6,0,1.1,0.3,1.4,0.8c0.3,0.6,0.5,1.2,0.6,1.8c0.1,0.7,0.2,1.1,0.3,1.4c0.7-1.4,1.5-2.5,2.3-3.3    c0.9-0.8,1.9-1.2,3.2-1.2c1.1,0,1.8,0.2,2.3,0.7c0.4,0.5,0.7,1.2,0.7,2.2c0,0.8-0.1,1.8-0.4,2.9c-0.3,1.2-0.6,1.7-1,1.7    c-0.2,0-0.7-0.1-1.2-0.3c-0.6-0.2-1.1-0.3-1.6-0.3c-0.8,0-1.6,0.3-2.3,1c-0.7,0.7-1.1,1.4-1.4,2.2v19.9c0,1.2-1.1,1.7-3.2,1.7H265    C262.9,54.2,261.8,53.6,261.8,52.4z"/>
		<path fill="#FFFFFF" d="M281.8,50.3c-2-2.8-3.1-6.7-3.1-11.9c0-5.2,1-9.2,3-12c2-2.8,5-4.1,9-4.1s7,1.4,9,4.1c2,2.8,3,6.8,3,12    c0,5.2-1,9.2-3.1,12c-2,2.7-5,4.1-8.9,4.1C286.8,54.5,283.8,53.1,281.8,50.3z M294,46.1c0.7-1.6,1-4.1,1-7.7c0-3.6-0.3-6.2-1-7.7    c-0.7-1.5-1.8-2.3-3.3-2.3c-1.5,0-2.6,0.8-3.3,2.3c-0.7,1.5-1,4.1-1,7.7c0,3.6,0.3,6.2,1,7.7c0.7,1.6,1.8,2.3,3.3,2.3    C292.2,48.4,293.3,47.6,294,46.1z"/>
		<path fill="#FFFFFF" d="M309.5,52.4c-1.2-1.5-1.9-3.5-1.9-6.3V24.3c0-1.2,1-1.7,3.1-1.7h1.5c1.1,0,1.9,0.1,2.3,0.4    c0.5,0.3,0.7,0.7,0.7,1.3v20.2c0,1.2,0.2,2.2,0.7,2.8c0.5,0.6,1.2,0.9,2.2,0.9c0.8,0,1.5-0.2,2.2-0.8c0.7-0.5,1.2-1.1,1.7-2V24.3    c0-1.2,1-1.7,3.1-1.7h1.6c2,0,3,0.6,3,1.7v19.9c0,2.7,0.1,4.7,0.3,5.9c0.2,1.2,0.3,2,0.3,2.2c0,0.6-0.7,1.1-2,1.4    c-1.4,0.3-2.6,0.4-3.7,0.4c-0.7,0-1.1-0.2-1.4-0.7c-0.2-0.5-0.4-1-0.5-1.7c-0.1-0.7-0.2-1.2-0.3-1.6c-0.9,1.3-2,2.4-3.2,3.2    c-1.3,0.8-2.7,1.3-4.3,1.3C312.5,54.5,310.7,53.8,309.5,52.4z"/>
		<path fill="#FFFFFF" d="M336.8,53.4c-1.8-0.8-2.6-1.7-2.6-2.7c0-0.7,0.3-1.6,1-2.7c0.7-1.1,1.3-1.6,1.8-1.6c0.1,0,0.5,0.2,1,0.6    c0.6,0.4,1.1,0.7,1.7,1c0.6,0.3,1.3,0.4,2,0.4c1.1,0,2-0.3,2.6-0.8c0.6-0.5,0.9-1.3,0.9-2.2c0-1.1-0.4-1.9-1.1-2.5    c-0.7-0.6-1.9-1.4-3.7-2.3c-1.9-1-3.3-2.2-4.4-3.5c-1-1.3-1.6-3.1-1.6-5.4c0-2.8,0.9-5.1,2.6-6.8c1.8-1.7,4.1-2.5,6.9-2.5    c1.8,0,3.4,0.3,5,0.8c1.6,0.6,2.4,1.3,2.4,2.3c0,0.7-0.3,1.6-0.8,2.7c-0.5,1.1-1,1.6-1.4,1.6c-0.1,0-0.6-0.2-1.4-0.6    c-0.8-0.4-1.7-0.6-2.7-0.6c-1,0-1.8,0.2-2.4,0.7c-0.6,0.4-0.9,1.1-0.9,2c0,0.9,0.3,1.6,0.9,2.2c0.6,0.6,1.5,1.2,2.8,1.9l1.1,0.7    c1.8,1,3.3,2.2,4.3,3.6c1,1.4,1.5,3.2,1.5,5.5c0,2.9-0.9,5.3-2.7,7.1c-1.8,1.8-4.3,2.7-7.3,2.7C340.4,54.5,338.5,54.2,336.8,53.4z    "/>
		<path fill="#FFFFFF" d="M358.8,50.5c-2.1-2.7-3.2-6.6-3.2-11.9c0-10.9,4.1-16.3,12.2-16.3c7.3,0,10.9,5.3,10.9,16    c0,0.4-0.4,1.1-1,1.9c-0.7,0.8-1.3,1.3-1.7,1.3h-12.6c0.1,2.5,0.6,4.3,1.6,5.4c0.9,1.1,2.3,1.6,4,1.6c1,0,2-0.1,2.8-0.4    c0.8-0.3,1.5-0.6,2.2-1c0.7-0.4,1.1-0.6,1.2-0.6c0.5,0,1.1,0.5,1.8,1.6c0.7,1.1,1,1.9,1,2.4c0,0.8-0.5,1.5-1.5,2.1    c-1,0.6-2.2,1.1-3.7,1.5c-1.5,0.4-2.8,0.5-4,0.5C364.3,54.5,361,53.2,358.8,50.5z M371.6,36.4c0-2.9-0.3-5.1-0.9-6.4    c-0.6-1.4-1.6-2-3-2c-1.4,0-2.5,0.7-3.2,2c-0.7,1.3-1.2,3.5-1.3,6.5H371.6z"/>
		<path fill="#FFFFFF" d="M385.4,52.4c-1.3-1.4-2-3.5-2-6.4V10.6c0-1.1,1.1-1.7,3.2-1.7h1.2c2.1,0,3.2,0.6,3.2,1.7V46    c0,0.9,0.1,1.5,0.4,1.9c0.3,0.4,0.7,0.6,1.3,0.6c0.3,0,0.6,0,0.9-0.1c0.3-0.1,0.5-0.1,0.7-0.1c0.4,0,0.8,0.5,1.1,1.4    c0.3,0.9,0.5,1.8,0.5,2.4c0,0.8-0.5,1.5-1.6,1.9s-2.2,0.6-3.5,0.6C388.5,54.5,386.7,53.8,385.4,52.4z"/>
	</g>
	<path fill="#FFFFFF" d="M59,0H12.5C5.6,0,0,5.6,0,12.5V59c0,6.9,5.6,12.5,12.5,12.5H59c6.9,0,12.5-5.6,12.5-12.5V12.5   C71.5,5.6,65.9,0,59,0z M20.5,49c0,1.6-1.3,2.9-2.9,2.9h-5.2c-1.6,0-2.9-1.3-2.9-2.9V22.5c0-1.6,1.3-2.9,2.9-2.9h5.2   c1.6,0,2.9,1.3,2.9,2.9V49z M48.2,54c0,1.6-1.3,2.9-2.9,2.9H26.2c-1.6,0-2.9-1.3-2.9-2.9V17.5c0-1.6,1.3-2.9,2.9-2.9h19.2   c1.6,0,2.9,1.3,2.9,2.9V54z M62,49c0,1.6-1.3,2.9-2.9,2.9h-5.2c-1.6,0-2.9-1.3-2.9-2.9V22.5c0-1.6,1.3-2.9,2.9-2.9h5.2   c1.6,0,2.9,1.3,2.9,2.9V49z"/>
</g>
<g>
</g>
<g>
</g>
<g>
</g>
<g>
</g>
<g>
</g>
<g>
</g>
</svg>