<?xml version="1.0" encoding="utf-8"?>
<!-- Generator: Adobe Illustrator 24.3.0, SVG Export Plug-In . SVG Version: 6.00 Build 0)  -->
<svg version="1.1" id="Layer_1" xmlns="http://www.w3.org/2000/svg" xmlns:xlink="http://www.w3.org/1999/xlink" x="0px" y="0px"
	 viewBox="0 0 151 91" enable-background="new 0 0 151 91" xml:space="preserve">
<g>
	<rect x="0.5" y="0.5" fill="#F7F8F9" stroke="#D2D2D2" stroke-miterlimit="10" width="150" height="90"/>
	<rect x="56.5" y="21.2" fill="#BDC5CB" width="60" height="2"/>
	<rect x="56.5" y="18.2" fill="#BDC5CB" width="60" height="2"/>
	<rect x="56.5" y="12.2" fill="#BDC5CB" width="30" height="3"/>
	<rect x="56.5" y="24.2" fill="#D8DCDE" width="22.7" height="2"/>
	<rect x="26.5" y="11.5" fill="#BDC5CB" width="26" height="20"/>
	<rect x="56.5" y="45.2" fill="#BDC5CB" width="60" height="2"/>
	<rect x="56.5" y="42.2" fill="#BDC5CB" width="60" height="2"/>
	<rect x="56.5" y="36.2" fill="#BDC5CB" width="30" height="3"/>
	<rect x="56.5" y="48.2" fill="#D8DCDE" width="22.7" height="2"/>
	<rect x="26.5" y="35.5" fill="#BDC5CB" width="26" height="20"/>
	<rect x="56.5" y="69.2" fill="#BDC5CB" width="60" height="2"/>
	<rect x="56.5" y="66.2" fill="#BDC5CB" width="60" height="2"/>
	<rect x="56.5" y="60.2" fill="#BDC5CB" width="30" height="3"/>
	<rect x="56.5" y="72.2" fill="#D8DCDE" width="22.7" height="2"/>
	<rect x="26.5" y="59.5" fill="#BDC5CB" width="26" height="20"/>
</g>
<g>
</g>
<g>
</g>
<g>
</g>
<g>
</g>
<g>
</g>
<g>
</g>
</svg>
