<?xml version="1.0" encoding="utf-8"?>
<!-- Generator: Adobe Illustrator 19.0.0, SVG Export Plug-In . SVG Version: 6.00 Build 0)  -->
<svg version="1.1" id="Layer_1" xmlns="http://www.w3.org/2000/svg" xmlns:xlink="http://www.w3.org/1999/xlink" x="0px" y="0px"
	 width="79px" height="28px" viewBox="-1092.9 1590.6 79 28" enable-background="new -1092.9 1590.6 79 28" xml:space="preserve">
<path fill="#878787" d="M-1089.9,1590.6h73c1.7,0,3,1.5,3,3.5v21c0,2-1.3,3.5-3,3.5h-73c-1.7,0-3-1.5-3-3.5v-21
	C-1092.9,1592.1-1091.6,1590.6-1089.9,1590.6z"/>
<path opacity="0.15" enable-background="new    " d="M-1064.8,1590.6h1v28h-1V1590.6z"/>
<path fill="#FFFFFF" d="M-1086.8,1600v1l8,4l8-4v-1c0-0.7-0.6-1.3-1.3-1.3h-13.4C-1086.2,1598.7-1086.8,1599.2-1086.8,1600z
	 M-1086.8,1602.2v7.1c0,0.7,0.6,1.3,1.3,1.3h13.4c0.7,0,1.3-0.6,1.3-1.3v-7.1l-8,4L-1086.8,1602.2z"/>
<g>
	<path fill="#FFFFFF" d="M-1048.9,1605.1h-3.7v3.4h4.1v1h-5.3v-9.4h5.1v1h-3.9v3h3.7L-1048.9,1605.1L-1048.9,1605.1z"/>
	<path fill="#FFFFFF" d="M-1047.1,1604.6c0-0.7,0-1.3,0-1.8h1.1l0.1,1.1l0,0c0.4-0.6,1-1.2,2.1-1.2c0.9,0,1.6,0.6,1.9,1.4l0,0
		c0.2-0.4,0.5-0.7,0.8-0.9c0.4-0.3,0.9-0.5,1.5-0.5c0.9,0,2.2,0.6,2.2,2.9v4h-1.2v-3.8c0-1.3-0.5-2.1-1.5-2.1
		c-0.7,0-1.2,0.5-1.5,1.1c-0.1,0.2-0.1,0.4-0.1,0.6v4.2h-1.2v-4.1c0-1.1-0.5-1.9-1.4-1.9c-0.8,0-1.3,0.6-1.5,1.2
		c-0.1,0.2-0.1,0.4-0.1,0.6v4.1h-1.2L-1047.1,1604.6L-1047.1,1604.6z"/>
	<path fill="#FFFFFF" d="M-1031.5,1609.5l-0.1-0.9l0,0c-0.4,0.5-1.1,1-2.1,1c-1.4,0-2.1-1-2.1-1.9c0-1.6,1.5-2.5,4.1-2.5v-0.1
		c0-0.6-0.2-1.6-1.5-1.6c-0.6,0-1.3,0.2-1.8,0.5l-0.3-0.8c0.6-0.4,1.4-0.6,2.2-0.6c2.1,0,2.6,1.4,2.6,2.8v2.5c0,0.6,0,1.2,0.1,1.6
		H-1031.5z M-1031.7,1606.1c-1.3,0-2.9,0.2-2.9,1.5c0,0.8,0.5,1.2,1.2,1.2c0.9,0,1.4-0.6,1.6-1.1c0-0.1,0.1-0.3,0.1-0.4
		L-1031.7,1606.1L-1031.7,1606.1z"/>
	<path fill="#FFFFFF" d="M-1027.2,1600.9c0,0.4-0.3,0.8-0.8,0.8c-0.4,0-0.7-0.3-0.7-0.8c0-0.4,0.3-0.8,0.8-0.8
		C-1027.5,1600.1-1027.2,1600.4-1027.2,1600.9z M-1028.5,1609.5v-6.8h1.2v6.8H-1028.5z"/>
	<path fill="#FFFFFF" d="M-1025.3,1599.6h1.2v9.9h-1.2V1599.6z"/>
</g>
</svg>
