<?xml version="1.0" encoding="utf-8"?>
<!-- Generator: Adobe Illustrator 19.0.0, SVG Export Plug-In . SVG Version: 6.00 Build 0)  -->
<svg version="1.1" id="Layer_1" xmlns="http://www.w3.org/2000/svg" xmlns:xlink="http://www.w3.org/1999/xlink" x="0px" y="0px"
	 width="62.3px" height="28px" viewBox="0 0 62.3 28" style="enable-background:new 0 0 62.3 28;" xml:space="preserve">
<style type="text/css">
	.st0{fill-rule:evenodd;clip-rule:evenodd;fill:#44609C;}
	.st1{fill:#FFFFFF;}
</style>
<g id="XMLID_88_">
	<path id="XMLID_352_" class="st0" d="M3.2,0h55.8c1.8,0,3.2,1.3,3.2,3v22c0,1.7-1.5,3-3.2,3H3.2C1.5,28,0,26.7,0,25V3
		C0,1.3,1.5,0,3.2,0z"/>
	<g id="XMLID_358_">
		<path id="XMLID_365_" class="st1" d="M11.5,12.3c0.1-0.2,0.2-0.4,0.4-0.7c0.3-0.5,0.6-1,0.9-1.5c0,0,0.1,0,0.1-0.1
			c0.2-0.2,0.3-0.5,0.4-0.7c0.1-0.2,0.2-0.5,0.2-0.7c0-0.5,0-1,0-1.4c0-0.3,0-0.6,0-0.9c0-0.1,0-0.1,0-0.2c0.1-0.1,0.2-0.1,0.3-0.2
			c0.2,0,0.4,0,0.6,0c0.1,0,0.2,0.1,0.3,0.1c0,0,0,0,0,0c0,0,0,0,0,0c0,0,0,0,0,0c0,0,0,0,0.1,0c0.3,0.1,0.5,0.2,0.6,0.5
			c0,0,0,0,0,0c0,0,0.1,0,0.1,0c0.1,0.1,0.2,0.3,0.3,0.5c0.1,0.2,0.2,0.4,0.2,0.5c0.1,0.1,0.1,0.3,0.1,0.4c0,0.2,0.1,0.3,0.1,0.5
			c0,0.3,0,0.6,0,1c0,0.3,0,0.5-0.1,0.8c0,0.1,0,0.2,0,0.3c0,0.2,0,0.2,0.2,0.2c0,0,0,0,0.1,0c1.3,0,2.6,0,3.8,0
			c0.3,0,0.6,0.1,0.9,0.2c0.1,0,0.2,0.1,0.3,0.2c0.1,0.1,0.2,0.2,0.2,0.3c0.1,0.2,0.1,0.3,0.2,0.5c0,0.2,0,0.4,0,0.6
			c0,0.1-0.1,0.2-0.1,0.4c-0.1,0.2-0.2,0.3-0.3,0.4c-0.1,0.1-0.1,0.1,0,0.2c0.2,0.2,0.4,0.4,0.6,0.6c0.4,0.7,0,1.4-0.5,1.7
			c-0.1,0.1-0.3,0.2-0.4,0.2c-0.1,0-0.1,0,0,0.1c0.1,0.2,0.3,0.4,0.3,0.6c0.1,0.3,0,0.6-0.1,0.9c-0.2,0.4-0.6,0.6-1,0.8
			c-0.1,0-0.1,0.1-0.1,0.2c0.1,0.1,0.1,0.3,0.2,0.4c0.1,0.3,0,0.5-0.1,0.7c-0.1,0.3-0.3,0.6-0.6,0.8c-0.1,0-0.1,0-0.2,0
			c-0.1,0.1-0.3,0.2-0.5,0.2c-2.5,0-5,0-7.4,0c-0.2,0-0.2,0-0.2-0.2c0-2.5,0-5,0-7.5c0-0.2,0-0.4,0.2-0.5
			C11.5,12.5,11.5,12.4,11.5,12.3z"/>
		<path id="XMLID_362_" class="st1" d="M10.3,17.2c0,1.6,0,3.2,0,4.7c0,0.1,0,0.1-0.1,0.1c-1,0-2,0-3,0C7,22,7,22,7,21.9
			c0-3.1,0-6.2,0-9.4c0-0.2,0-0.2,0.2-0.2c1,0,2,0,2.9,0c0.1,0,0.1,0,0.1,0.1C10.3,14,10.3,15.6,10.3,17.2
			C10.3,17.2,10.3,17.2,10.3,17.2z M7,17.2c0,1.6,0,3.1,0,4.7c0,0.1,0,0.1,0.1,0.1c1,0,2,0,2.9,0c0.1,0,0.1,0,0.1-0.1
			c0-3.1,0-6.2,0-9.3c0-0.2,0-0.2-0.2-0.2c-0.9,0-1.9,0-2.8,0c0,0-0.1,0-0.1,0c-0.1,0-0.1,0-0.1,0.2C7,14,7,15.6,7,17.2z"/>
		<path id="XMLID_361_" class="st1" d="M21.6,13c0-0.1,0.1-0.2,0.1-0.4c0-0.2,0.1-0.4,0-0.6c0-0.2-0.1-0.4-0.2-0.5
			c-0.1-0.1-0.1-0.2-0.2-0.3c-0.1-0.1-0.2-0.1-0.3-0.2c-0.3-0.1-0.6-0.2-0.9-0.2c-1.3,0-2.6,0-3.8,0c0,0,0,0-0.1,0
			c-0.2,0-0.2,0-0.2-0.2c0-0.1,0-0.2,0-0.3c0-0.3,0.1-0.5,0.1-0.8c0-0.3,0-0.6,0-1c0-0.2,0-0.3-0.1-0.5c0-0.1,0-0.3-0.1-0.4
			c-0.1-0.2-0.1-0.4-0.2-0.5c-0.1-0.2-0.2-0.3-0.3-0.5c0,0,0-0.1-0.1,0c0,0,0,0,0,0c-0.1-0.3-0.4-0.4-0.6-0.5c0,0,0,0-0.1,0
			c0,0,0,0,0,0c0,0,0,0,0,0c0,0,0,0,0,0c-0.1,0-0.2-0.1-0.3-0.1c-0.2,0-0.4,0-0.6,0c-0.1,0-0.2,0.1-0.3,0.2c0,0,0,0.1,0,0.2
			c0,0.3,0,0.6,0,0.9c0,0.5,0,1,0,1.4c0,0.3-0.1,0.5-0.2,0.7c-0.1,0.2-0.3,0.5-0.4,0.7c0,0,0,0.1-0.1,0.1c0.2-0.3,0.3-0.5,0.5-0.8
			c0.1-0.2,0.2-0.4,0.2-0.7c0-0.6,0-1.1,0-1.7c0-0.3,0-0.5,0-0.8c0-0.1,0.1-0.1,0.1-0.1C13.7,6,14,6,14.3,6c0.6,0,1,0.3,1.4,0.8
			c0.3,0.4,0.5,0.9,0.6,1.5c0.1,0.6,0,1.1,0,1.7c0,0.3-0.1,0.5-0.1,0.8c0,0.1,0,0.1,0.1,0.1c0.5,0,0.9,0,1.4,0c0.9,0,1.8,0,2.6,0
			c0.6,0,1.1,0.2,1.4,0.9C21.9,12.1,21.9,12.6,21.6,13C21.6,13,21.6,13,21.6,13z"/>
		<path id="XMLID_360_" class="st1" d="M11.5,12.3c0,0.1,0,0.2-0.1,0.2c-0.1,0.2-0.2,0.3-0.2,0.5c0,2.5,0,5,0,7.5
			c0,0.2,0,0.2,0.2,0.2c2.5,0,5,0,7.4,0c0.2,0,0.4-0.1,0.5-0.2c0,0,0.1,0,0.2,0c-0.2,0.2-0.4,0.3-0.7,0.3c-2.1,0-4.2,0-6.3,0
			c-0.4,0-0.8,0-1.2,0c-0.1,0-0.1,0-0.1-0.1c0-1.4,0-2.7,0-4.1c0-1.2,0-2.3,0-3.5C11.2,12.8,11.4,12.6,11.5,12.3z"/>
		<path id="XMLID_359_" class="st1" d="M7,17.2c0-1.6,0-3.1,0-4.7c0-0.1,0-0.1,0.1-0.2c0,0,0.1,0,0.1,0c0.9,0,1.9,0,2.8,0
			c0.2,0,0.2,0,0.2,0.2c0,3.1,0,6.2,0,9.3c0,0.1,0,0.1-0.1,0.1c-1,0-2,0-2.9,0c-0.1,0-0.1,0-0.1-0.1C7,20.3,7,18.7,7,17.2z"/>
	</g>
	<g id="XMLID_91_">
		<path id="XMLID_92_" class="st1" d="M30,19.3v-10h1.2v8.9h4.4v1.1H30z"/>
		<path id="XMLID_95_" class="st1" d="M37,9.7c0-0.3,0.1-0.5,0.2-0.6C37.3,9,37.5,9,37.7,9C37.9,9,38,9,38.1,9.2s0.2,0.3,0.2,0.6
			c0,0.3-0.1,0.4-0.2,0.6c-0.1,0.1-0.3,0.2-0.5,0.2c-0.2,0-0.4-0.1-0.5-0.2C37.1,10.2,37,10,37,9.7z M38.2,19.3h-1.1v-7.5h1.1V19.3z
			"/>
		<path id="XMLID_217_" class="st1" d="M41.8,15.4c0.2-0.3,0.5-0.6,0.9-1.1l2.4-2.6h1.3l-3,3.2l3.2,4.3h-1.4l-2.6-3.5l-0.9,0.7v2.8
			h-1.1V8.6h1.1v5.6C41.8,14.5,41.7,14.9,41.8,15.4L41.8,15.4z"/>
		<path id="XMLID_234_" class="st1" d="M51.2,19.4c-1.1,0-2-0.3-2.6-1c-0.6-0.7-1-1.6-1-2.8c0-1.2,0.3-2.2,0.9-2.9
			c0.6-0.7,1.4-1.1,2.4-1.1c0.9,0,1.7,0.3,2.2,0.9c0.5,0.6,0.8,1.4,0.8,2.4v0.7h-5.2c0,0.9,0.2,1.5,0.7,2c0.4,0.5,1,0.7,1.8,0.7
			c0.8,0,1.6-0.2,2.4-0.5v1c-0.4,0.2-0.8,0.3-1.1,0.4C52.1,19.3,51.7,19.4,51.2,19.4z M50.8,12.6c-0.6,0-1.1,0.2-1.4,0.6
			c-0.4,0.4-0.6,0.9-0.6,1.6h3.9c0-0.7-0.2-1.3-0.5-1.6C51.9,12.8,51.4,12.6,50.8,12.6z"/>
	</g>
</g>
</svg>
