<?xml version="1.0" encoding="utf-8"?>
<!-- Generator: Adobe Illustrator 19.0.0, SVG Export Plug-In . SVG Version: 6.00 Build 0)  -->
<svg version="1.1" id="Layer_1" xmlns="http://www.w3.org/2000/svg" xmlns:xlink="http://www.w3.org/1999/xlink" x="0px" y="0px"
	 width="103px" height="28px" viewBox="0 0 103 28" style="enable-background:new 0 0 103 28;" xml:space="preserve">
<style type="text/css">
	.st0{fill-rule:evenodd;clip-rule:evenodd;fill:#43609C;}
	.st1{fill:#FFFFFF;}
	.st2{fill-rule:evenodd;clip-rule:evenodd;fill:#263A7D;}
</style>
<g id="XMLID_1_">
	<path id="XMLID_4_" class="st0" d="M3,0h97c1.7,0,3,1.3,3,3v22c0,1.7-1.3,3-3,3H3c-1.7,0-3-1.3-3-3V3C0,1.3,1.3,0,3,0z"/>
	<g id="XMLID_3_">
		<path id="XMLID_24_" class="st1" d="M35.3,19.3h-1.2v-10h5.6v1h-4.4v3.7h4.1v1h-4.1V19.3z"/>
		<path id="XMLID_28_" class="st1" d="M45.8,19.3l-0.2-1.1h-0.1c-0.4,0.5-0.7,0.8-1.1,1c-0.4,0.2-0.8,0.3-1.4,0.3
			c-0.7,0-1.3-0.2-1.7-0.6s-0.6-0.9-0.6-1.6c0-1.5,1.2-2.3,3.6-2.4l1.3,0v-0.5c0-0.6-0.1-1-0.4-1.3c-0.3-0.3-0.7-0.4-1.2-0.4
			c-0.6,0-1.3,0.2-2.1,0.6l-0.3-0.9c0.4-0.2,0.8-0.4,1.2-0.5s0.9-0.2,1.3-0.2c0.9,0,1.6,0.2,2,0.6s0.6,1,0.6,1.9v5.1H45.8z
			 M43.2,18.5c0.7,0,1.3-0.2,1.7-0.6s0.6-0.9,0.6-1.6v-0.7l-1.1,0c-0.9,0-1.6,0.2-2,0.4c-0.4,0.2-0.6,0.6-0.6,1.2
			c0,0.4,0.1,0.7,0.4,0.9S42.8,18.5,43.2,18.5z"/>
		<path id="XMLID_109_" class="st1" d="M51.9,19.4c-1.1,0-1.9-0.3-2.5-1c-0.6-0.7-0.9-1.6-0.9-2.8c0-1.3,0.3-2.2,0.9-2.9
			s1.5-1,2.6-1c0.4,0,0.7,0,1.1,0.1s0.6,0.2,0.8,0.3l-0.3,1c-0.3-0.1-0.5-0.2-0.8-0.3c-0.3-0.1-0.6-0.1-0.8-0.1
			c-1.5,0-2.3,1-2.3,2.9c0,0.9,0.2,1.6,0.6,2.1s0.9,0.7,1.7,0.7c0.6,0,1.3-0.1,1.9-0.4v1C53.3,19.3,52.7,19.4,51.9,19.4z"/>
		<path id="XMLID_137_" class="st1" d="M58.8,19.4c-1.1,0-2-0.3-2.6-1s-1-1.6-1-2.8c0-1.2,0.3-2.2,0.9-2.9s1.4-1.1,2.4-1.1
			c0.9,0,1.7,0.3,2.2,0.9c0.5,0.6,0.8,1.4,0.8,2.4v0.7h-5.2c0,0.9,0.2,1.5,0.7,2s1,0.7,1.8,0.7c0.8,0,1.6-0.2,2.4-0.5v1
			c-0.4,0.2-0.8,0.3-1.1,0.4C59.7,19.3,59.3,19.4,58.8,19.4z M58.5,12.6c-0.6,0-1.1,0.2-1.4,0.6s-0.6,0.9-0.6,1.6h3.9
			c0-0.7-0.2-1.3-0.5-1.6C59.5,12.8,59.1,12.6,58.5,12.6z"/>
		<path id="XMLID_140_" class="st1" d="M67,11.6c1,0,1.7,0.3,2.3,1c0.5,0.7,0.8,1.6,0.8,2.9s-0.3,2.2-0.8,2.9c-0.5,0.7-1.3,1-2.3,1
			c-0.5,0-0.9-0.1-1.3-0.3c-0.4-0.2-0.7-0.5-1-0.8h-0.1l-0.2,1h-0.8V8.6h1.1v2.6c0,0.6,0,1.1-0.1,1.6h0.1C65.1,12,65.9,11.6,67,11.6
			z M66.8,12.6c-0.8,0-1.3,0.2-1.7,0.7c-0.3,0.4-0.5,1.2-0.5,2.2s0.2,1.8,0.5,2.3c0.4,0.5,0.9,0.7,1.7,0.7c0.7,0,1.2-0.3,1.6-0.8
			c0.3-0.5,0.5-1.2,0.5-2.2c0-1-0.2-1.7-0.5-2.2S67.5,12.6,66.8,12.6z"/>
		<path id="XMLID_143_" class="st1" d="M78.5,15.5c0,1.2-0.3,2.2-0.9,2.9c-0.6,0.7-1.5,1-2.5,1c-0.7,0-1.3-0.2-1.8-0.5
			s-0.9-0.8-1.2-1.4s-0.4-1.3-0.4-2.1c0-1.2,0.3-2.2,0.9-2.9c0.6-0.7,1.5-1,2.5-1c1,0,1.9,0.3,2.5,1S78.5,14.3,78.5,15.5z
			 M72.8,15.5c0,1,0.2,1.7,0.6,2.2s0.9,0.8,1.7,0.8s1.3-0.2,1.7-0.7c0.4-0.5,0.6-1.2,0.6-2.2c0-1-0.2-1.7-0.6-2.2
			c-0.4-0.5-1-0.7-1.7-0.7c-0.7,0-1.3,0.2-1.7,0.7S72.8,14.5,72.8,15.5z"/>
		<path id="XMLID_147_" class="st1" d="M87,15.5c0,1.2-0.3,2.2-0.9,2.9c-0.6,0.7-1.5,1-2.5,1c-0.7,0-1.3-0.2-1.8-0.5
			s-0.9-0.8-1.2-1.4s-0.4-1.3-0.4-2.1c0-1.2,0.3-2.2,0.9-2.9c0.6-0.7,1.5-1,2.5-1c1,0,1.9,0.3,2.5,1S87,14.3,87,15.5z M81.3,15.5
			c0,1,0.2,1.7,0.6,2.2s0.9,0.8,1.7,0.8s1.3-0.2,1.7-0.7c0.4-0.5,0.6-1.2,0.6-2.2c0-1-0.2-1.7-0.6-2.2c-0.4-0.5-1-0.7-1.7-0.7
			c-0.7,0-1.3,0.2-1.7,0.7S81.3,14.5,81.3,15.5z"/>
		<path id="XMLID_153_" class="st1" d="M90.1,15.4c0.2-0.3,0.5-0.6,0.9-1.1l2.4-2.6h1.3l-3,3.2l3.2,4.3h-1.4l-2.6-3.5l-0.9,0.7v2.8
			H89V8.6h1.1v5.6C90.1,14.5,90.1,14.9,90.1,15.4L90.1,15.4z"/>
	</g>
	<g id="XMLID_34_">
		<path id="XMLID_35_" class="st1" d="M13.6,14c0,2.5,0,5,0,7.5c-1,0-2.1,0-3.1,0c0-2.5,0-5,0-7.5c-0.5,0-1,0-1.5,0
			c0-0.9,0-1.8,0-2.7c0.5,0,1,0,1.5,0c0-0.1,0-0.2,0-0.2c0-0.6,0-1.2,0-1.9c0.1-1,0.5-1.9,1.4-2.4c0.5-0.3,1-0.4,1.5-0.4
			c0.8,0,1.6,0,2.4,0c0,0,0,0,0.1,0c0,0.9,0,1.7,0,2.6c-0.1,0-0.2,0-0.3,0c-0.4,0-0.9,0-1.3,0c-0.4,0-0.7,0.2-0.7,0.6
			c0,0.6,0,1.1,0,1.7c0.8,0,1.6,0,2.4,0c-0.1,0.9-0.2,1.8-0.3,2.7C15,14,14.3,14,13.6,14z"/>
	</g>
	<rect id="XMLID_2_" x="25" class="st2" width="1" height="28"/>
</g>
</svg>
