<?xml version="1.0" encoding="utf-8"?>
<!-- Generator: Adobe Illustrator 19.0.0, SVG Export Plug-In . SVG Version: 6.00 Build 0)  -->
<svg version="1.1" id="Layer_1" xmlns="http://www.w3.org/2000/svg" xmlns:xlink="http://www.w3.org/1999/xlink" x="0px" y="0px"
	 width="96px" height="28px" viewBox="0 0 96 28" style="enable-background:new 0 0 96 28;" xml:space="preserve">
<style type="text/css">
	.st0{fill-rule:evenodd;clip-rule:evenodd;fill:#DB4536;}
	.st1{fill:#FFFFFF;}
	.st2{fill-rule:evenodd;clip-rule:evenodd;fill:#C02026;}
</style>
<g id="XMLID_1_">
	<path id="XMLID_103_" class="st0" d="M3,0h90c1.7,0,3,1.3,3,3v22c0,1.7-1.3,3-3,3H3c-1.7,0-3-1.3-3-3V3C0,1.3,1.3,0,3,0z"/>
	<g id="XMLID_104_">
		<path id="XMLID_65_" class="st1" d="M47.9,12.4h3.4v4.9c-0.5,0.2-1.1,0.3-1.6,0.4s-1.2,0.1-1.9,0.1c-1.5,0-2.7-0.5-3.5-1.4
			c-0.8-0.9-1.3-2.2-1.3-3.8c0-1,0.2-1.9,0.6-2.7c0.4-0.8,1-1.4,1.8-1.8c0.8-0.4,1.7-0.6,2.8-0.6c1.1,0,2.1,0.2,3,0.6l-0.5,1
			c-0.9-0.4-1.8-0.6-2.6-0.6c-1.2,0-2.2,0.4-2.9,1.1s-1,1.7-1,3c0,1.3,0.3,2.4,1,3.1c0.7,0.7,1.6,1,2.9,1c0.7,0,1.4-0.1,2-0.2v-3.1
			h-2.2V12.4z"/>
		<path id="XMLID_168_" class="st1" d="M60,13.9c0,1.2-0.3,2.2-0.9,2.9c-0.6,0.7-1.5,1-2.5,1c-0.7,0-1.3-0.2-1.8-0.5
			s-0.9-0.8-1.2-1.4s-0.4-1.3-0.4-2.1c0-1.2,0.3-2.2,0.9-2.9c0.6-0.7,1.5-1,2.5-1c1,0,1.9,0.3,2.5,1C59.7,11.8,60,12.7,60,13.9z
			 M54.3,13.9c0,1,0.2,1.7,0.6,2.2c0.4,0.5,0.9,0.8,1.7,0.8s1.3-0.3,1.7-0.7c0.4-0.5,0.6-1.2,0.6-2.2c0-1-0.2-1.7-0.6-2.2
			c-0.4-0.5-1-0.7-1.7-0.7c-0.7,0-1.3,0.2-1.7,0.7C54.5,12.2,54.3,12.9,54.3,13.9z"/>
		<path id="XMLID_174_" class="st1" d="M68.5,13.9c0,1.2-0.3,2.2-0.9,2.9c-0.6,0.7-1.5,1-2.5,1c-0.7,0-1.3-0.2-1.8-0.5
			s-0.9-0.8-1.2-1.4s-0.4-1.3-0.4-2.1c0-1.2,0.3-2.2,0.9-2.9c0.6-0.7,1.5-1,2.5-1c1,0,1.9,0.3,2.5,1C68.2,11.8,68.5,12.7,68.5,13.9z
			 M62.8,13.9c0,1,0.2,1.7,0.6,2.2c0.4,0.5,0.9,0.8,1.7,0.8s1.3-0.3,1.7-0.7c0.4-0.5,0.6-1.2,0.6-2.2c0-1-0.2-1.7-0.6-2.2
			c-0.4-0.5-1-0.7-1.7-0.7c-0.7,0-1.3,0.2-1.7,0.7C62.9,12.2,62.8,12.9,62.8,13.9z"/>
		<path id="XMLID_177_" class="st1" d="M76.6,10.1v0.7L75.2,11c0.1,0.2,0.2,0.4,0.3,0.6c0.1,0.3,0.2,0.5,0.2,0.9
			c0,0.7-0.3,1.3-0.8,1.8s-1.2,0.7-2.1,0.7c-0.2,0-0.4,0-0.6-0.1c-0.5,0.3-0.7,0.6-0.7,1c0,0.2,0.1,0.4,0.3,0.5
			c0.2,0.1,0.5,0.1,0.9,0.1H74c0.8,0,1.4,0.2,1.9,0.5c0.4,0.3,0.7,0.8,0.7,1.5c0,0.8-0.3,1.5-1,1.9c-0.7,0.4-1.6,0.7-2.9,0.7
			c-1,0-1.7-0.2-2.3-0.5c-0.5-0.4-0.8-0.9-0.8-1.5c0-0.5,0.1-0.8,0.4-1.2s0.7-0.6,1.2-0.7c-0.2-0.1-0.4-0.2-0.5-0.4
			c-0.1-0.2-0.2-0.4-0.2-0.6c0-0.3,0.1-0.5,0.2-0.7s0.4-0.4,0.7-0.6c-0.4-0.2-0.7-0.4-0.9-0.8c-0.2-0.4-0.4-0.8-0.4-1.3
			c0-0.8,0.2-1.5,0.7-1.9S72,10,72.9,10c0.4,0,0.7,0,1.1,0.1H76.6z M70.6,18.9c0,0.4,0.2,0.7,0.5,0.9s0.8,0.3,1.5,0.3
			c1,0,1.7-0.1,2.1-0.4c0.5-0.3,0.7-0.7,0.7-1.2c0-0.4-0.1-0.7-0.4-0.8c-0.3-0.2-0.7-0.2-1.4-0.2h-1.4c-0.5,0-0.9,0.1-1.2,0.4
			S70.6,18.4,70.6,18.9z M71.2,12.5c0,0.5,0.1,0.9,0.4,1.2c0.3,0.3,0.7,0.4,1.2,0.4c1.1,0,1.7-0.5,1.7-1.6c0-1.1-0.6-1.7-1.7-1.7
			c-0.5,0-0.9,0.1-1.2,0.4S71.2,12,71.2,12.5z"/>
		<path id="XMLID_181_" class="st1" d="M79.3,17.6h-1.1V7h1.1V17.6z"/>
		<path id="XMLID_184_" class="st1" d="M84.8,17.8c-1.1,0-2-0.3-2.6-1c-0.6-0.7-1-1.6-1-2.8c0-1.2,0.3-2.2,0.9-2.9
			c0.6-0.7,1.4-1.1,2.4-1.1c0.9,0,1.7,0.3,2.2,0.9c0.5,0.6,0.8,1.4,0.8,2.4v0.7h-5.2c0,0.9,0.2,1.5,0.7,2c0.4,0.5,1,0.7,1.8,0.7
			c0.8,0,1.6-0.2,2.4-0.5v1c-0.4,0.2-0.8,0.3-1.1,0.4C85.8,17.7,85.3,17.8,84.8,17.8z M84.5,11c-0.6,0-1.1,0.2-1.4,0.6
			c-0.4,0.4-0.6,0.9-0.6,1.6h3.9c0-0.7-0.2-1.3-0.5-1.6C85.6,11.1,85.1,11,84.5,11z"/>
	</g>
	<g id="XMLID_107_">
		<g id="XMLID_105_">
			<path id="XMLID_106_" class="st1" d="M7,13.3c0.2-0.9,0.4-1.7,0.9-2.5c1.8-2.8,5.7-3.6,8.4-1.6c0.2,0.1,0.3,0.2,0.4,0.3
				c-0.5,0.5-0.9,1.1-1.4,1.6c-0.8-0.7-1.8-1-2.8-0.9c-0.8,0.1-1.5,0.4-2,1c-1.2,1.1-1.4,2.9-0.7,4.3c0.7,1.4,2.3,2.2,3.9,1.9
				c1.4-0.2,2.4-1.2,2.6-2.4c-1.1,0-2.1,0-3.2,0c0-0.7,0-1.3,0-2c1.8,0,3.6,0,5.4,0c0.8,2.7-1.2,5.8-4,6.5c-3.7,0.9-6.9-1.7-7.3-4.8
				c0-0.1,0-0.1-0.1-0.1C7,14.2,7,13.8,7,13.3z"/>
		</g>
		<g id="XMLID_101_">
			<path id="XMLID_64_" class="st1" d="M27,14.8c-0.8,0-1.6,0-2.5,0c0,0.8,0,1.6,0,2.5c-0.6,0-1.1,0-1.7,0c0-0.8,0-1.6,0-2.5
				c-0.9,0-1.7,0-2.5,0c0-0.6,0-1.1,0-1.7c0.8,0,1.6,0,2.5,0c0-0.9,0-1.7,0-2.5c0.6,0,1.1,0,1.7,0c0,0.8,0,1.6,0,2.5
				c0.9,0,1.7,0,2.5,0C27,13.7,27,14.3,27,14.8z"/>
		</g>
	</g>
	<rect id="XMLID_2_" x="34" y="0" class="st2" width="1" height="28"/>
</g>
</svg>
