<?xml version="1.0" encoding="utf-8"?>
<!-- Generator: Adobe Illustrator 19.0.0, SVG Export Plug-In . SVG Version: 6.00 Build 0)  -->
<svg version="1.1" id="Layer_1" xmlns="http://www.w3.org/2000/svg" xmlns:xlink="http://www.w3.org/1999/xlink" x="0px" y="0px"
	 width="98.3px" height="28px" viewBox="0 0 98.3 28" style="enable-background:new 0 0 98.3 28;" xml:space="preserve">
<style type="text/css">
	.st0{fill-rule:evenodd;clip-rule:evenodd;fill:#0177B7;}
	.st1{fill:#FFFFFF;}
	.st2{fill-rule:evenodd;clip-rule:evenodd;fill:#00679E;}
</style>
<g id="XMLID_69_">
	<path id="XMLID_318_" class="st0" d="M3.2,0h91.8c1.8,0,3.2,1.3,3.2,3v22c0,1.7-1.5,3-3.2,3H3.2C1.5,28,0,26.7,0,25V3
		C0,1.3,1.5,0,3.2,0z"/>
	<g id="XMLID_324_">
		<path id="XMLID_332_" class="st1" d="M11.8,20.7c0-3,0-6,0-9c0,0,0.1,0,0.1,0c0.9,0,1.8,0,2.7,0c0.1,0,0.1,0,0.1,0.1
			c0,0.4,0,0.7,0,1.1c0.1-0.1,0.2-0.3,0.3-0.4c0.5-0.6,1.2-1,2-1.1c0.7-0.1,1.4,0,2.1,0.3c0.6,0.3,1,0.7,1.3,1.3
			c0.4,0.8,0.5,1.6,0.5,2.4c0,1.7,0,3.4,0,5.1c0,0,0,0.1,0,0.1c-1,0-2,0-3,0c0-0.1,0-0.1,0-0.1c0-1.5,0-3.1,0-4.6
			c0-0.4,0-0.8-0.2-1.2c-0.2-0.6-0.8-1-1.5-0.9c-0.8,0.1-1.2,0.5-1.5,1.2c-0.1,0.2-0.1,0.5-0.1,0.7c0,1.6,0,3.2,0,4.8
			c0,0.1,0,0.1-0.1,0.1c-0.9,0-1.8,0-2.7,0C11.9,20.7,11.9,20.7,11.8,20.7z"/>
		<path id="XMLID_326_" class="st1" d="M10.2,20.7c0,0-0.1,0-0.1,0c-0.9,0-1.8,0-2.7,0c-0.1,0-0.1,0-0.1-0.1c0-2.9,0-5.8,0-8.8
			c0-0.1,0-0.1,0.1-0.1c0.9,0,1.8,0,2.7,0c0,0,0.1,0,0.1,0C10.2,14.7,10.2,17.7,10.2,20.7z"/>
		<path id="XMLID_325_" class="st1" d="M8.7,10.4c-0.6,0-1.1-0.2-1.4-0.7C6.7,8.9,7,7.7,8.1,7.4c0.6-0.2,1.1-0.1,1.6,0.2
			c0.5,0.4,0.7,0.9,0.6,1.5c-0.1,0.6-0.4,1-1,1.2C9.2,10.4,8.9,10.4,8.7,10.4C8.7,10.5,8.7,10.4,8.7,10.4z"/>
	</g>
	<g id="XMLID_278_">
		<path id="XMLID_279_" class="st1" d="M37,19.3v-10h1.2v8.9h4.4v1.1H37z"/>
		<path id="XMLID_285_" class="st1" d="M44,9.7c0-0.3,0.1-0.5,0.2-0.6C44.3,9,44.5,9,44.7,9C44.9,9,45,9,45.1,9.2s0.2,0.3,0.2,0.6
			c0,0.3-0.1,0.4-0.2,0.6c-0.1,0.1-0.3,0.2-0.5,0.2c-0.2,0-0.4-0.1-0.5-0.2C44.1,10.2,44,10,44,9.7z M45.2,19.3h-1.1v-7.5h1.1V19.3z
			"/>
		<path id="XMLID_288_" class="st1" d="M52.8,19.3v-4.8c0-0.6-0.1-1.1-0.4-1.4s-0.7-0.5-1.3-0.5c-0.8,0-1.4,0.2-1.7,0.6
			s-0.5,1.1-0.5,2.1v3.9h-1.1v-7.5h0.9l0.2,1h0.1c0.2-0.4,0.6-0.7,1-0.9c0.4-0.2,0.9-0.3,1.4-0.3c0.9,0,1.6,0.2,2,0.7
			c0.5,0.4,0.7,1.1,0.7,2.1v4.9H52.8z"/>
		<path id="XMLID_290_" class="st1" d="M57.3,15.4c0.2-0.3,0.5-0.6,0.9-1.1l2.4-2.6H62L59,15l3.2,4.3h-1.4l-2.6-3.5l-0.9,0.7v2.8
			h-1.1V8.6h1.1v5.6C57.3,14.5,57.3,14.9,57.3,15.4L57.3,15.4z"/>
		<path id="XMLID_292_" class="st1" d="M66.7,19.4c-1.1,0-2-0.3-2.6-1c-0.6-0.7-1-1.6-1-2.8c0-1.2,0.3-2.2,0.9-2.9
			c0.6-0.7,1.4-1.1,2.4-1.1c0.9,0,1.7,0.3,2.2,0.9c0.5,0.6,0.8,1.4,0.8,2.4v0.7h-5.2c0,0.9,0.2,1.5,0.7,2c0.4,0.5,1,0.7,1.8,0.7
			c0.8,0,1.6-0.2,2.4-0.5v1c-0.4,0.2-0.8,0.3-1.1,0.4C67.7,19.3,67.2,19.4,66.7,19.4z M66.4,12.6c-0.6,0-1.1,0.2-1.4,0.6
			c-0.4,0.4-0.6,0.9-0.6,1.6h3.9c0-0.7-0.2-1.3-0.5-1.6C67.5,12.8,67,12.6,66.4,12.6z"/>
		<path id="XMLID_295_" class="st1" d="M76.5,18.2L76.5,18.2c-0.6,0.8-1.4,1.1-2.4,1.1c-1,0-1.7-0.3-2.3-1c-0.5-0.7-0.8-1.6-0.8-2.9
			c0-1.2,0.3-2.2,0.8-2.9s1.3-1,2.3-1c1,0,1.8,0.4,2.3,1.1h0.1l0-0.5l0-0.5v-3h1.1v10.6h-0.9L76.5,18.2z M74.3,18.4
			c0.8,0,1.3-0.2,1.7-0.6c0.3-0.4,0.5-1.1,0.5-2v-0.2c0-1.1-0.2-1.8-0.5-2.3c-0.4-0.5-0.9-0.7-1.7-0.7c-0.7,0-1.2,0.3-1.5,0.8
			c-0.4,0.5-0.5,1.2-0.5,2.2c0,1,0.2,1.7,0.5,2.2C73.1,18.2,73.6,18.4,74.3,18.4z"/>
		<path id="XMLID_303_" class="st1" d="M79.9,9.7c0-0.3,0.1-0.5,0.2-0.6C80.2,9,80.4,9,80.6,9c0.2,0,0.3,0.1,0.5,0.2
			s0.2,0.3,0.2,0.6c0,0.3-0.1,0.4-0.2,0.6c-0.1,0.1-0.3,0.2-0.5,0.2c-0.2,0-0.4-0.1-0.5-0.2C80,10.2,79.9,10,79.9,9.7z M81.1,19.3
			H80v-7.5h1.1V19.3z"/>
		<path id="XMLID_309_" class="st1" d="M88.7,19.3v-4.8c0-0.6-0.1-1.1-0.4-1.4s-0.7-0.5-1.3-0.5c-0.8,0-1.4,0.2-1.7,0.6
			s-0.5,1.1-0.5,2.1v3.9h-1.1v-7.5h0.9l0.2,1h0.1c0.2-0.4,0.6-0.7,1-0.9c0.4-0.2,0.9-0.3,1.4-0.3c0.9,0,1.6,0.2,2,0.7
			c0.5,0.4,0.7,1.1,0.7,2.1v4.9H88.7z"/>
	</g>
	<rect id="XMLID_70_" x="28" y="0" class="st2" width="1" height="28"/>
</g>
</svg>
