<?xml version="1.0" encoding="utf-8"?>
<!-- Generator: Adobe Illustrator 19.0.0, SVG Export Plug-In . SVG Version: 6.00 Build 0)  -->
<svg version="1.1" id="Layer_1" xmlns="http://www.w3.org/2000/svg" xmlns:xlink="http://www.w3.org/1999/xlink" x="0px" y="0px"
	 width="110px" height="27.9px" viewBox="-310.8 441.6 110 27.9" enable-background="new -310.8 441.6 110 27.9"
	 xml:space="preserve">
<path fill="#468BFF" d="M-307.8,441.6h104c1.7,0,3,1.5,3,3.5v21c0,2-1.3,3.5-3,3.5h-104c-1.7,0-3-1.5-3-3.5v-21
	C-310.8,443.1-309.5,441.6-307.8,441.6z"/>
<path opacity="0.15" enable-background="new    " d="M-282.8,441.6h1v28h-1V441.6z"/>
<path opacity="0.99" fill="#FFFFFF" enable-background="new    " d="M-296.8,447.5c-4.3,0-7.8,3.2-7.8,7.2c0,2,0.9,3.8,2.3,5.1v3.8
	l3.3-2c0.7,0.2,1.4,0.3,2.2,0.3c4.3,0,7.8-3.2,7.8-7.2C-289,450.7-292.5,447.5-296.8,447.5z M-296.2,457l-1.8-2l-3.3,2l3.7-4.4
	l1.8,2l3.3-2L-296.2,457z"/>
<path fill="#FFFFFF" d="M-211.1,454c-0.3-0.2-0.6-0.2-0.8-0.2c-0.3,0-0.5,0.1-0.7,0.2c-0.2,0.1-0.3,0.4-0.4,0.6
	c-0.1,0.4-0.2,0.9-0.2,1.3v3.5h-1.1v-6.7h1v1c0.3-0.5,0.5-0.8,0.7-0.9c0.2-0.2,0.5-0.2,0.7-0.2c0.4,0,0.8,0.1,1.2,0.4L-211.1,454z
	 M-220.8,456.4c0,0.7,0.3,1.3,0.6,1.7c0.4,0.4,0.8,0.6,1.4,0.6c0.4,0,0.8-0.1,1.1-0.3s0.5-0.6,0.7-1.1l1.2,0.1
	c-0.2,0.7-0.5,1.2-1,1.6c-0.5,0.4-1.1,0.6-1.9,0.6c-1,0-1.8-0.3-2.3-0.9c-0.6-0.6-0.9-1.5-0.9-2.6s0.3-2,0.9-2.6s1.3-0.9,2.3-0.9
	c0.9,0,1.6,0.3,2.2,0.9c0.6,0.6,0.9,1.5,0.9,2.6c0,0.1,0,0.2,0,0.3L-220.8,456.4L-220.8,456.4z M-217.4,454.2
	c-0.4-0.4-0.8-0.7-1.4-0.7c-0.5,0-1,0.2-1.3,0.5c-0.4,0.4-0.6,0.8-0.6,1.4h3.8C-217,454.9-217.1,454.5-217.4,454.2z M-224.6,461.8
	c-0.5,0.3-1,0.4-1.7,0.4c-0.8,0-1.5-0.2-1.9-0.5c-0.5-0.4-0.7-0.9-0.7-1.6l1.1,0.2c0,0.3,0.2,0.6,0.4,0.7c0.3,0.2,0.7,0.3,1.2,0.3
	s0.9-0.1,1.2-0.3c0.3-0.2,0.5-0.5,0.6-0.9c0.1-0.2,0.1-0.7,0.1-1.5c-0.5,0.6-1.1,0.9-1.9,0.9c-0.9,0-1.6-0.3-2.2-1
	c-0.5-0.7-0.8-1.5-0.8-2.4c0-0.6,0.1-1.2,0.3-1.8c0.2-0.5,0.6-1,1-1.3s1-0.4,1.6-0.4c0.8,0,1.5,0.3,2,1v-0.8h1.1v5.8
	c0,1-0.1,1.8-0.3,2.2C-223.8,461.2-224.2,461.6-224.6,461.8z M-224.9,454.2c-0.4-0.4-0.8-0.6-1.3-0.6s-0.9,0.2-1.3,0.6
	c-0.4,0.4-0.5,1-0.5,1.8c0,0.9,0.2,1.5,0.5,1.9c0.4,0.4,0.8,0.6,1.3,0.6s1-0.2,1.3-0.6c0.4-0.4,0.5-1,0.5-1.9
	C-224.4,455.2-224.5,454.6-224.9,454.2z M-231.7,455.4c0-0.5,0-0.8-0.1-1s-0.2-0.4-0.5-0.6c-0.2-0.1-0.5-0.2-0.8-0.2
	c-0.5,0-0.9,0.2-1.3,0.5s-0.5,0.9-0.5,1.8v3.7h-1.1v-6.7h1v1c0.5-0.7,1.2-1.1,2.1-1.1c0.4,0,0.8,0.1,1.1,0.2
	c0.3,0.1,0.6,0.3,0.8,0.6c0.2,0.2,0.3,0.5,0.4,0.8c0,0.2,0.1,0.6,0.1,1.1v4.1h-1.1v-4.2L-231.7,455.4L-231.7,455.4z M-242.5,456.4
	c0,0.7,0.3,1.3,0.6,1.7c0.4,0.4,0.8,0.6,1.4,0.6c0.4,0,0.8-0.1,1.1-0.3c0.3-0.2,0.5-0.6,0.7-1.1l1.2,0.1c-0.2,0.7-0.5,1.2-1,1.6
	c-0.5,0.4-1.1,0.6-1.9,0.6c-1,0-1.8-0.3-2.3-0.9c-0.6-0.6-0.9-1.5-0.9-2.6s0.3-2,0.9-2.6s1.3-0.9,2.3-0.9c0.9,0,1.6,0.3,2.2,0.9
	c0.6,0.6,0.9,1.5,0.9,2.6c0,0.1,0,0.2,0,0.3L-242.5,456.4L-242.5,456.4z M-239.1,454.2c-0.4-0.4-0.8-0.7-1.4-0.7
	c-0.5,0-1,0.2-1.3,0.5c-0.4,0.4-0.6,0.8-0.6,1.4h3.8C-238.7,454.9-238.8,454.5-239.1,454.2z M-248.3,455.1c0.1,0,0.5,0.1,1,0.3
	c0.8,0.2,1.4,0.4,1.7,0.5c0.3,0.1,0.6,0.3,0.8,0.6c0.2,0.3,0.3,0.6,0.3,1s-0.1,0.7-0.3,1.1c-0.2,0.3-0.5,0.6-1,0.8
	c-0.4,0.2-0.9,0.3-1.4,0.3c-0.9,0-1.5-0.2-2-0.5c-0.5-0.4-0.8-0.9-0.9-1.6l1.1-0.2c0.1,0.5,0.2,0.8,0.5,1s0.7,0.4,1.2,0.4
	s0.9-0.1,1.2-0.3c0.3-0.2,0.4-0.5,0.4-0.8s-0.1-0.5-0.3-0.6c-0.2-0.1-0.5-0.2-1.2-0.4c-0.8-0.2-1.4-0.4-1.7-0.5
	c-0.3-0.2-0.6-0.4-0.7-0.6c-0.2-0.3-0.3-0.6-0.3-0.9s0.1-0.6,0.2-0.8c0.1-0.3,0.3-0.5,0.6-0.6c0.2-0.1,0.4-0.2,0.7-0.3
	c0.3-0.1,0.6-0.1,1-0.1c0.5,0,1,0.1,1.4,0.2c0.4,0.2,0.7,0.4,0.9,0.6c0.2,0.3,0.3,0.6,0.4,1l-1.1,0.2c-0.1-0.3-0.2-0.6-0.4-0.8
	c-0.2-0.2-0.6-0.3-1-0.3c-0.5,0-0.9,0.1-1.1,0.3s-0.3,0.4-0.3,0.6c0,0.1,0,0.3,0.1,0.4C-248.7,454.9-248.5,455-248.3,455.1z
	 M-254.8,455.1c0.1,0,0.5,0.1,1,0.3c0.8,0.2,1.4,0.4,1.7,0.5c0.3,0.1,0.6,0.3,0.8,0.6c0.2,0.3,0.3,0.6,0.3,1s-0.1,0.7-0.3,1.1
	c-0.2,0.3-0.5,0.6-1,0.8c-0.4,0.2-0.9,0.3-1.4,0.3c-0.9,0-1.5-0.2-2-0.5c-0.5-0.4-0.8-0.9-0.9-1.6l1.1-0.2c0.1,0.5,0.2,0.8,0.5,1
	s0.7,0.4,1.2,0.4s0.9-0.1,1.2-0.3c0.3-0.2,0.4-0.5,0.4-0.8s-0.1-0.5-0.3-0.6c-0.2-0.1-0.5-0.2-1.2-0.4c-0.8-0.2-1.4-0.4-1.7-0.5
	c-0.3-0.2-0.6-0.4-0.7-0.6c-0.2-0.3-0.3-0.6-0.3-0.9s0.1-0.6,0.2-0.8c0.1-0.3,0.3-0.5,0.6-0.6c0.2-0.1,0.4-0.2,0.7-0.3
	c0.3-0.1,0.6-0.1,1-0.1c0.5,0,1,0.1,1.4,0.2c0.4,0.2,0.7,0.4,0.9,0.6c0.2,0.3,0.3,0.6,0.4,1l-1.1,0.2c-0.1-0.3-0.2-0.6-0.4-0.8
	c-0.2-0.2-0.6-0.3-1-0.3c-0.5,0-0.9,0.1-1.1,0.3s-0.3,0.4-0.3,0.6c0,0.1,0,0.3,0.1,0.4C-255.2,454.9-255,455-254.8,455.1z
	 M-262.7,456.4c0,0.7,0.3,1.3,0.6,1.7c0.4,0.4,0.8,0.6,1.4,0.6c0.4,0,0.8-0.1,1.1-0.3s0.5-0.6,0.7-1.1l1.2,0.1
	c-0.2,0.7-0.5,1.2-1,1.6c-0.5,0.4-1.1,0.6-1.9,0.6c-1,0-1.8-0.3-2.3-0.9c-0.6-0.6-0.9-1.5-0.9-2.6s0.3-2,0.9-2.6s1.3-0.9,2.3-0.9
	c0.9,0,1.6,0.3,2.2,0.9c0.6,0.6,0.9,1.5,0.9,2.6c0,0.1,0,0.2,0,0.3L-262.7,456.4L-262.7,456.4z M-259.3,454.2
	c-0.4-0.4-0.8-0.7-1.4-0.7c-0.5,0-1,0.2-1.3,0.5c-0.4,0.4-0.6,0.8-0.6,1.4h3.8C-258.9,454.9-259.1,454.5-259.3,454.2z M-266.5,451.7
	l-2.7,7.8h-1.1l-2.7-7.9v7.9h-1.2v-9.3h1.9l2.2,6.6c0.2,0.6,0.4,1.1,0.4,1.4c0.1-0.3,0.3-0.8,0.5-1.5l2.2-6.5h1.7v9.3h-1.2
	L-266.5,451.7L-266.5,451.7z"/>
</svg>
