<?xml version="1.0" encoding="utf-8"?>
<!-- Generator: Adobe Illustrator 19.0.0, SVG Export Plug-In . SVG Version: 6.00 Build 0)  -->
<svg version="1.1" id="Layer_1" xmlns="http://www.w3.org/2000/svg" xmlns:xlink="http://www.w3.org/1999/xlink" x="0px" y="0px"
	 width="98px" height="28px" viewBox="0 0 98 28" style="enable-background:new 0 0 98 28;" xml:space="preserve">
<style type="text/css">
	.st0{fill-rule:evenodd;clip-rule:evenodd;fill:#BD2026;}
	.st1{fill:#FFFFFF;}
	.st2{fill-rule:evenodd;clip-rule:evenodd;fill:#A31E22;}
</style>
<g id="XMLID_2_">
	<path id="XMLID_4_" class="st0" d="M3,0h92c1.7,0,3,1.3,3,3v22c0,1.7-1.3,3-3,3H3c-1.7,0-3-1.3-3-3V3C0,1.3,1.3,0,3,0z"/>
	<path id="XMLID_19_" class="st1" d="M11.2,16c-0.1,0.5-0.3,1-0.4,1.4c-0.2,1.1-0.7,2-1.4,2.8c-0.1,0.1-0.1,0.2-0.2,0.2
		c-0.1,0-0.1-0.1-0.1-0.2c-0.1-0.4-0.1-0.8-0.1-1.3c0-0.7,0.1-1.3,0.3-2c0.3-1.1,0.5-2.2,0.8-3.3c0-0.1,0-0.2,0-0.3
		c-0.2-0.5-0.2-1.1-0.1-1.6c0.1-0.5,0.3-0.8,0.7-1.1c0.4-0.3,0.9-0.3,1.3,0c0.3,0.3,0.4,0.7,0.4,1.1c-0.1,0.7-0.3,1.3-0.5,2
		c-0.1,0.2-0.1,0.4-0.2,0.6c-0.1,0.6,0.4,1.2,1,1.3c0.7,0.1,1.2-0.3,1.6-0.8c0.5-0.6,0.7-1.3,0.8-2c0.1-0.5,0.1-1.1,0.1-1.6
		c-0.1-0.9-0.5-1.5-1.3-2c-1.1-0.7-3.1-0.6-4.3,0.6c-0.6,0.6-0.9,1.3-1,2.1c-0.1,0.4-0.1,0.8,0.1,1.3c0.1,0.2,0.2,0.4,0.3,0.6
		c0.1,0.2,0.2,0.3,0.1,0.6C9,14.5,9,14.7,8.9,14.8c-0.1,0.3-0.2,0.3-0.5,0.2c-0.5-0.3-0.9-0.7-1.2-1.3c-0.4-1.2-0.4-2.4,0.3-3.6
		C8.3,8.8,9.5,8,11,7.7c0.9-0.2,1.8-0.2,2.6,0.1c1.5,0.4,2.6,1.3,3.1,2.8c0.2,0.6,0.2,1.2,0.2,1.8c0,0.8-0.2,1.5-0.5,2.2
		c-0.4,1-1.1,1.8-2.1,2.2c-0.6,0.2-1.2,0.3-1.9,0.2c-0.4-0.1-0.8-0.3-1.1-0.6C11.3,16.1,11.3,16.1,11.2,16C11.2,16,11.2,16,11.2,16z
		"/>
	<g id="XMLID_1_">
		<path id="XMLID_110_" class="st1" d="M39.3,12c0,1-0.3,1.8-1,2.3c-0.7,0.5-1.7,0.8-3,0.8h-1.2v3.9H33v-10h2.6
			C38.1,9.1,39.3,10,39.3,12z M34.2,14.1h1c1,0,1.8-0.2,2.2-0.5s0.7-0.9,0.7-1.6c0-0.7-0.2-1.2-0.6-1.5s-1.1-0.5-2-0.5h-1.3V14.1z"
			/>
		<path id="XMLID_113_" class="st1" d="M41.2,9.5c0-0.3,0.1-0.5,0.2-0.6c0.1-0.1,0.3-0.2,0.5-0.2c0.2,0,0.3,0.1,0.5,0.2
			s0.2,0.3,0.2,0.6s-0.1,0.4-0.2,0.6c-0.1,0.1-0.3,0.2-0.5,0.2c-0.2,0-0.4-0.1-0.5-0.2C41.2,10,41.2,9.8,41.2,9.5z M42.4,19.1h-1.1
			v-7.5h1.1V19.1z"/>
		<path id="XMLID_116_" class="st1" d="M49.9,19.1v-4.8c0-0.6-0.1-1.1-0.4-1.4s-0.7-0.5-1.3-0.5c-0.8,0-1.4,0.2-1.7,0.6
			s-0.5,1.1-0.5,2.1v3.9h-1.1v-7.5h0.9l0.2,1H46c0.2-0.4,0.6-0.7,1-0.9c0.4-0.2,0.9-0.3,1.4-0.3c0.9,0,1.6,0.2,2,0.7
			c0.5,0.4,0.7,1.1,0.7,2.1v4.9H49.9z"/>
		<path id="XMLID_118_" class="st1" d="M55.8,18.3c0.2,0,0.4,0,0.6,0c0.2,0,0.3-0.1,0.4-0.1V19c-0.1,0.1-0.3,0.1-0.5,0.1
			c-0.2,0-0.5,0.1-0.6,0.1c-1.4,0-2.2-0.8-2.2-2.3v-4.5h-1.1v-0.5l1.1-0.5L54,9.8h0.7v1.7h2.2v0.9h-2.2v4.4c0,0.5,0.1,0.8,0.3,1
			S55.4,18.3,55.8,18.3z"/>
		<path id="XMLID_120_" class="st1" d="M61.5,19.2c-1.1,0-2-0.3-2.6-1s-1-1.6-1-2.8c0-1.2,0.3-2.2,0.9-2.9s1.4-1.1,2.4-1.1
			c0.9,0,1.7,0.3,2.2,0.9c0.5,0.6,0.8,1.4,0.8,2.4v0.7h-5.2c0,0.9,0.2,1.5,0.7,2s1,0.7,1.8,0.7c0.8,0,1.6-0.2,2.4-0.5v1
			c-0.4,0.2-0.8,0.3-1.1,0.4C62.4,19.2,62,19.2,61.5,19.2z M61.2,12.4c-0.6,0-1.1,0.2-1.4,0.6s-0.6,0.9-0.6,1.6H63
			c0-0.7-0.2-1.3-0.5-1.6C62.2,12.6,61.8,12.4,61.2,12.4z"/>
		<path id="XMLID_123_" class="st1" d="M69.6,11.4c0.3,0,0.6,0,0.9,0.1l-0.2,1.1c-0.3-0.1-0.6-0.1-0.8-0.1c-0.6,0-1.1,0.2-1.6,0.7
			s-0.6,1.1-0.6,1.8v4h-1.1v-7.5h0.9l0.1,1.4h0.1c0.3-0.5,0.6-0.9,1-1.1S69.1,11.4,69.6,11.4z"/>
		<path id="XMLID_126_" class="st1" d="M75.1,19.2c-1.1,0-2-0.3-2.6-1s-1-1.6-1-2.8c0-1.2,0.3-2.2,0.9-2.9s1.4-1.1,2.4-1.1
			c0.9,0,1.7,0.3,2.2,0.9c0.5,0.6,0.8,1.4,0.8,2.4v0.7h-5.2c0,0.9,0.2,1.5,0.7,2s1,0.7,1.8,0.7c0.8,0,1.6-0.2,2.4-0.5v1
			c-0.4,0.2-0.8,0.3-1.1,0.4C76,19.2,75.6,19.2,75.1,19.2z M74.8,12.4c-0.6,0-1.1,0.2-1.4,0.6s-0.6,0.9-0.6,1.6h3.9
			c0-0.7-0.2-1.3-0.5-1.6C75.8,12.6,75.4,12.4,74.8,12.4z"/>
		<path id="XMLID_132_" class="st1" d="M84.6,17c0,0.7-0.3,1.2-0.8,1.6s-1.2,0.6-2.2,0.6c-1,0-1.8-0.2-2.3-0.5v-1.1
			c0.4,0.2,0.7,0.3,1.2,0.4c0.4,0.1,0.8,0.2,1.2,0.2c0.6,0,1-0.1,1.4-0.3c0.3-0.2,0.5-0.5,0.5-0.9c0-0.3-0.1-0.5-0.4-0.7
			c-0.3-0.2-0.7-0.5-1.5-0.7c-0.7-0.3-1.2-0.5-1.5-0.7c-0.3-0.2-0.5-0.4-0.7-0.7c-0.1-0.2-0.2-0.5-0.2-0.9c0-0.6,0.2-1.1,0.7-1.4
			c0.5-0.4,1.2-0.5,2-0.5c0.8,0,1.6,0.2,2.4,0.5L84,12.9c-0.8-0.3-1.4-0.5-2-0.5c-0.5,0-0.9,0.1-1.2,0.3s-0.4,0.4-0.4,0.7
			c0,0.2,0.1,0.4,0.2,0.5c0.1,0.1,0.3,0.3,0.5,0.4s0.7,0.3,1.3,0.6c0.9,0.3,1.5,0.6,1.8,1C84.4,16.1,84.6,16.5,84.6,17z"/>
		<path id="XMLID_134_" class="st1" d="M88.9,18.3c0.2,0,0.4,0,0.6,0c0.2,0,0.3-0.1,0.4-0.1V19c-0.1,0.1-0.3,0.1-0.5,0.1
			c-0.2,0-0.5,0.1-0.6,0.1c-1.4,0-2.2-0.8-2.2-2.3v-4.5h-1.1v-0.5l1.1-0.5L87,9.8h0.7v1.7h2.2v0.9h-2.2v4.4c0,0.5,0.1,0.8,0.3,1
			S88.5,18.3,88.9,18.3z"/>
	</g>
	<rect id="XMLID_306_" x="24" y="0" class="st2" width="1" height="28"/>
</g>
</svg>
