<?xml version="1.0" encoding="utf-8"?>
<!-- Generator: Adobe Illustrator 19.0.0, SVG Export Plug-In . SVG Version: 6.00 Build 0)  -->
<svg version="1.1" id="Layer_1" xmlns="http://www.w3.org/2000/svg" xmlns:xlink="http://www.w3.org/1999/xlink" x="0px" y="0px"
	 width="75px" height="28px" viewBox="-1626.9 2356.6 75 28" enable-background="new -1626.9 2356.6 75 28" xml:space="preserve">
<path fill="#353535" d="M-1623.9,2356.6h69c1.7,0,3,1.5,3,3.5v21c0,2-1.3,3.5-3,3.5h-69c-1.7,0-3-1.5-3-3.5v-21
	C-1626.9,2358.1-1625.6,2356.6-1623.9,2356.6z"/>
<path opacity="0.15" enable-background="new    " d="M-1598.8,2356.6h1v28h-1V2356.6z"/>
<g>
	<path fill="#FFFFFF" d="M-1612.8,2367.2c2.3,0,4.6,0,6.9,0c0.4,0,0.7,0.1,0.9,0.5c0.1,0.2,0.1,0.4,0.1,0.6c0,1.7,0,3.4,0,5.1
		c0,0.7-0.4,1.1-1.1,1c-0.6,0-1.2,0-1.8,0c-0.1,0-0.2,0-0.2,0.2c0,0.7,0,1.4,0,2c0,0.6-0.4,1-1,1c-0.1,0-0.3,0-0.4,0
		c-2.5,0-4.9,0-7.4,0c-0.3,0-0.5,0-0.8-0.1c-0.3-0.2-0.5-0.5-0.5-0.9c0-0.7,0-1.4,0-2c0-0.2-0.1-0.2-0.2-0.2c-0.6,0-1.2,0-1.7,0
		c-0.7,0-1-0.4-1-1c0-1.7,0-3.4,0-5.1c0-0.4,0.2-0.8,0.6-0.9c0.2-0.1,0.3-0.1,0.5-0.1C-1617.4,2367.2-1615.1,2367.2-1612.8,2367.2z
		 M-1612.8,2372.4L-1612.8,2372.4c-1.4,0-2.8,0-4.2,0c-0.1,0-0.2,0-0.2,0.2c0,0.3,0,0.7,0,1c0,1,0,2,0,3c0,0.3,0.1,0.4,0.4,0.4
		c2.5,0,5.1,0,7.6,0c0.1,0,0.3,0,0.4,0c0.2,0,0.3-0.2,0.3-0.3c0-1.3,0-2.7,0-4c0-0.2,0-0.2-0.2-0.2
		C-1610,2372.4-1611.4,2372.4-1612.8,2372.4z M-1608.1,2369.9c0.4,0,0.7-0.3,0.7-0.7s-0.3-0.7-0.8-0.7c-0.4,0-0.7,0.3-0.7,0.7
		C-1608.8,2369.6-1608.5,2369.9-1608.1,2369.9z"/>
	<path fill="#FFFFFF" d="M-1607.8,2366.5c-0.2,0-0.4,0-0.5,0c-3.1,0-6.2,0-9.3,0c-0.1,0-0.2,0-0.2-0.2c0-0.5,0-1,0-1.5s0.4-1,0.9-1
		c0.1,0,0.2,0,0.3,0c2.6,0,5.2,0,7.8,0c0.6,0,1,0.4,1,1c0,0.5,0,0.9,0,1.4C-1607.8,2366.4-1607.8,2366.5-1607.8,2366.5z"/>
	<path fill="#FFFFFF" d="M-1615.8,2374.4c0-0.2,0-0.4,0-0.6c2,0,4,0,6,0c0,0.2,0,0.4,0,0.6
		C-1611.8,2374.4-1613.8,2374.4-1615.8,2374.4z"/>
	<path fill="#FFFFFF" d="M-1613.5,2375.7c-0.7,0-1.4,0-2.1,0c-0.1,0-0.2,0-0.2-0.2c0-0.1,0-0.2,0-0.3s0-0.2,0.2-0.2
		c0.1,0,0.2,0,0.3,0c1.3,0,2.6,0,3.9,0c0.3,0,0.3,0,0.3,0.3c0,0.4,0,0.4-0.4,0.4C-1612.2,2375.7-1612.8,2375.7-1613.5,2375.7
		L-1613.5,2375.7z"/>
</g>
<g>
	<path fill="#FFFFFF" d="M-1587.8,2366.2c0.6-0.1,1.4-0.2,2.3-0.2c1.2,0,2.1,0.3,2.6,0.8c0.5,0.4,0.8,1.1,0.8,2c0,0.8-0.3,1.5-0.7,2
		c-0.6,0.7-1.7,1-2.9,1c-0.4,0-0.7,0-1-0.1v3.8h-1.2L-1587.8,2366.2L-1587.8,2366.2z M-1586.6,2370.8c0.3,0.1,0.6,0.1,1,0.1
		c1.5,0,2.4-0.7,2.4-2c0-1.2-0.9-1.8-2.2-1.8c-0.5,0-0.9,0-1.1,0.1v3.6H-1586.6z"/>
	<path fill="#FFFFFF" d="M-1580.6,2370.9c0-0.8,0-1.5-0.1-2.1h1.1v1.3h0.1c0.3-0.9,1-1.5,1.9-1.5c0.1,0,0.2,0,0.3,0v1.2
		c-0.1,0-0.3,0-0.4,0c-0.9,0-1.5,0.7-1.6,1.6c0,0.2-0.1,0.4-0.1,0.6v3.6h-1.2L-1580.6,2370.9L-1580.6,2370.9z"/>
	<path fill="#FFFFFF" d="M-1574.7,2366.9c0,0.4-0.3,0.8-0.8,0.8c-0.4,0-0.7-0.3-0.7-0.8c0-0.4,0.3-0.8,0.8-0.8
		C-1575,2366.1-1574.7,2366.4-1574.7,2366.9z M-1576,2375.5v-6.7h1.2v6.7H-1576z"/>
	<path fill="#FFFFFF" d="M-1572.8,2370.6c0-0.7,0-1.3-0.1-1.8h1.1l0.1,1.1l0,0c0.3-0.6,1.1-1.3,2.2-1.3c0.9,0,2.4,0.6,2.4,2.9v4
		h-1.2v-3.9c0-1.1-0.4-2-1.6-2c-0.8,0-1.4,0.6-1.6,1.3c-0.1,0.2-0.1,0.4-0.1,0.6v4.1h-1.2L-1572.8,2370.6L-1572.8,2370.6z"/>
	<path fill="#FFFFFF" d="M-1563.6,2366.8v1.9h1.8v0.9h-1.8v3.6c0,0.8,0.2,1.3,0.9,1.3c0.3,0,0.6,0,0.7-0.1l0.1,0.9
		c-0.2,0.1-0.6,0.2-1.1,0.2c-0.6,0-1-0.2-1.3-0.5c-0.3-0.4-0.5-1-0.5-1.8v-3.7h-1v-0.9h1v-1.6L-1563.6,2366.8z"/>
</g>
</svg>
