<?xml version="1.0" encoding="utf-8"?>
<!-- Generator: Adobe Illustrator 19.0.0, SVG Export Plug-In . SVG Version: 6.00 Build 0)  -->
<svg version="1.1" id="Layer_1" xmlns="http://www.w3.org/2000/svg" xmlns:xlink="http://www.w3.org/1999/xlink" x="0px" y="0px"
	 width="89px" height="28px" viewBox="0 0 89 28" style="enable-background:new 0 0 89 28;" xml:space="preserve">
<style type="text/css">
	.st0{fill-rule:evenodd;clip-rule:evenodd;fill:#EF4823;}
	.st1{fill:#FFFFFF;}
	.st2{fill-rule:evenodd;clip-rule:evenodd;fill:#D42F27;}
</style>
<g id="XMLID_69_">
	<path id="XMLID_245_" class="st0" d="M3,0h83c1.7,0,3,1.3,3,3v22c0,1.7-1.3,3-3,3H3c-1.7,0-3-1.3-3-3V3C0,1.3,1.3,0,3,0z"/>
	<g id="XMLID_253_">
		<path id="XMLID_258_" class="st1" d="M41.2,15.1v4.2H40v-10h2.7c1.2,0,2.1,0.2,2.7,0.7c0.6,0.5,0.9,1.2,0.9,2.1
			c0,1.3-0.7,2.2-2,2.7l2.7,4.5h-1.4l-2.4-4.2H41.2z M41.2,14.1h1.6c0.8,0,1.4-0.2,1.8-0.5c0.4-0.3,0.6-0.8,0.6-1.5
			c0-0.7-0.2-1.1-0.6-1.4c-0.4-0.3-1-0.4-1.9-0.4h-1.5V14.1z"/>
		<path id="XMLID_262_" class="st1" d="M51.7,19.4c-1.1,0-2-0.3-2.6-1c-0.6-0.7-1-1.6-1-2.8c0-1.2,0.3-2.2,0.9-2.9
			c0.6-0.7,1.4-1.1,2.4-1.1c0.9,0,1.7,0.3,2.2,0.9c0.5,0.6,0.8,1.4,0.8,2.4v0.7h-5.2c0,0.9,0.2,1.5,0.7,2c0.4,0.5,1,0.7,1.8,0.7
			c0.8,0,1.6-0.2,2.4-0.5v1c-0.4,0.2-0.8,0.3-1.1,0.4C52.6,19.3,52.2,19.4,51.7,19.4z M51.3,12.6c-0.6,0-1.1,0.2-1.4,0.6
			c-0.4,0.4-0.6,0.9-0.6,1.6h3.9c0-0.7-0.2-1.3-0.5-1.6C52.4,12.8,51.9,12.6,51.3,12.6z"/>
		<path id="XMLID_265_" class="st1" d="M61.4,18.2L61.4,18.2c-0.6,0.8-1.4,1.1-2.4,1.1c-1,0-1.7-0.3-2.3-1c-0.5-0.7-0.8-1.6-0.8-2.9
			s0.3-2.2,0.8-2.9s1.3-1,2.3-1c1,0,1.8,0.4,2.3,1.1h0.1l0-0.5l0-0.5v-3h1.1v10.6h-0.9L61.4,18.2z M59.2,18.4c0.8,0,1.3-0.2,1.7-0.6
			c0.3-0.4,0.5-1.1,0.5-2v-0.2c0-1.1-0.2-1.8-0.5-2.3c-0.4-0.5-0.9-0.7-1.7-0.7c-0.7,0-1.2,0.3-1.5,0.8c-0.4,0.5-0.5,1.2-0.5,2.2
			c0,1,0.2,1.7,0.5,2.2S58.5,18.4,59.2,18.4z"/>
		<path id="XMLID_269_" class="st1" d="M70,18.2L70,18.2c-0.6,0.8-1.4,1.1-2.4,1.1c-1,0-1.7-0.3-2.3-1c-0.5-0.7-0.8-1.6-0.8-2.9
			s0.3-2.2,0.8-2.9s1.3-1,2.3-1c1,0,1.8,0.4,2.3,1.1H70l0-0.5l0-0.5v-3h1.1v10.6h-0.9L70,18.2z M67.8,18.4c0.8,0,1.3-0.2,1.7-0.6
			c0.3-0.4,0.5-1.1,0.5-2v-0.2c0-1.1-0.2-1.8-0.5-2.3c-0.4-0.5-0.9-0.7-1.7-0.7c-0.7,0-1.2,0.3-1.5,0.8c-0.4,0.5-0.5,1.2-0.5,2.2
			c0,1,0.2,1.7,0.5,2.2S67.1,18.4,67.8,18.4z"/>
		<path id="XMLID_276_" class="st1" d="M73.4,9.7c0-0.3,0.1-0.5,0.2-0.6C73.7,9,73.9,9,74.1,9c0.2,0,0.3,0.1,0.5,0.2
			s0.2,0.3,0.2,0.6s-0.1,0.4-0.2,0.6c-0.1,0.1-0.3,0.2-0.5,0.2c-0.2,0-0.4-0.1-0.5-0.2C73.5,10.2,73.4,10,73.4,9.7z M74.6,19.3h-1.1
			v-7.5h1.1V19.3z"/>
		<path id="XMLID_282_" class="st1" d="M79.5,18.5c0.2,0,0.4,0,0.6,0c0.2,0,0.3-0.1,0.4-0.1v0.9c-0.1,0.1-0.3,0.1-0.5,0.1
			c-0.2,0-0.5,0.1-0.6,0.1c-1.4,0-2.2-0.8-2.2-2.3v-4.5h-1.1v-0.5l1.1-0.5l0.5-1.6h0.7v1.7h2.2v0.9h-2.2V17c0,0.5,0.1,0.8,0.3,1
			S79.1,18.5,79.5,18.5z"/>
	</g>
	<g id="XMLID_243_">
		<path id="XMLID_327_" class="st1" d="M7,13.6c0-0.1,0-0.2,0-0.3c0,0,0,0,0-0.1c0-0.2,0.1-0.4,0.1-0.6c0.1-0.4,0.3-0.7,0.6-1
			c0.4-0.3,0.8-0.4,1.2-0.5c0.5,0,1,0.1,1.5,0.3c0,0,0.1,0,0.1,0c0.4-0.3,0.9-0.5,1.4-0.8c0.6-0.2,1.2-0.4,1.8-0.5
			c0.3-0.1,0.6-0.1,0.9-0.1c0.1,0,0.2,0,0.3,0c0,0,0,0,0-0.1c0-0.4,0-0.7,0-1.1c0-0.2,0-0.4,0.1-0.6c0.2-0.9,0.8-1.5,1.7-1.7
			c0.1,0,0.2,0,0.3,0c0.1,0,0.2,0,0.3,0c0.1,0,0.2,0,0.3,0.1c0.3,0.1,0.6,0.2,1,0.4c0.5,0.3,1.1,0.5,1.7,0.6c0.1,0,0.2,0,0.3,0
			c0,0,0,0,0,0c0-0.5,0.4-0.9,0.8-1c0.1,0,0.1,0,0.2,0c0.1,0,0.2,0,0.2,0c0,0,0.1,0,0.1,0c0.6,0.1,1,0.7,0.9,1.3
			c-0.1,0.5-0.6,0.9-1.1,0.9c-0.3,0-0.6,0-0.8,0c-0.3,0-0.6,0-0.9-0.1c-0.4-0.1-0.9-0.2-1.3-0.4c-0.3-0.2-0.7-0.3-1-0.5
			c-0.2-0.1-0.5-0.2-0.7-0.2c-0.3,0-0.6,0.2-0.7,0.4c-0.1,0.2-0.2,0.4-0.2,0.7c0,0.4,0,0.8,0,1.2c0,0,0,0,0,0c0.2,0,0.4,0,0.5,0.1
			c0.5,0,0.9,0.1,1.3,0.2c0.9,0.2,1.7,0.6,2.5,1.1c0,0,0,0,0.1,0c0.5-0.3,1.1-0.4,1.6-0.3c0.4,0.1,0.7,0.2,1,0.4
			c0.5,0.3,0.7,0.8,0.8,1.4c0,0.1,0,0.2,0,0.3c0,0.1,0,0.2,0,0.3c0,0.1,0,0.2,0,0.2c-0.1,0.4-0.2,0.8-0.5,1.2
			c-0.2,0.2-0.3,0.4-0.5,0.5c0,0,0,0,0,0.1c0,0.4,0,0.8-0.2,1.2c-0.2,0.8-0.6,1.4-1.1,2c-0.6,0.6-1.3,1.2-2,1.5
			c-0.6,0.3-1.2,0.5-1.9,0.7c-0.5,0.1-1,0.2-1.5,0.2c-0.1,0-0.2,0-0.3,0c-0.2,0-0.4,0-0.6,0c-0.1,0-0.2,0-0.3,0
			c-0.4,0-0.8-0.1-1.2-0.2c-0.8-0.2-1.6-0.4-2.3-0.8c-0.8-0.4-1.5-1-2.1-1.6c-0.4-0.5-0.8-1.1-1-1.8c-0.1-0.4-0.2-0.8-0.2-1.3
			c0-0.1,0-0.1-0.1-0.1c-0.2-0.2-0.4-0.3-0.6-0.6c-0.3-0.3-0.4-0.7-0.5-1.1C7,13.8,7,13.7,7,13.6z M15.5,20.3c0.3,0,0.6,0,0.9-0.1
			c0.5,0,0.9-0.1,1.4-0.3c0.9-0.2,1.7-0.6,2.4-1.2c0.5-0.4,0.9-0.9,1.2-1.5c0.4-0.7,0.5-1.5,0.3-2.3c-0.2-0.7-0.5-1.2-1-1.7
			c-0.5-0.5-1-0.9-1.6-1.2c-1-0.5-2-0.7-3.1-0.8c-0.5,0-1,0-1.5,0.1c-0.4,0.1-0.9,0.1-1.3,0.3c-0.7,0.2-1.4,0.5-2,1
			c-0.6,0.4-1.1,0.9-1.5,1.6c-0.3,0.6-0.5,1.3-0.4,2.1c0.1,0.6,0.3,1.1,0.6,1.5c0.4,0.7,1,1.2,1.7,1.6c0.8,0.5,1.7,0.8,2.7,0.9
			C14.7,20.2,15.1,20.2,15.5,20.3z M21.5,12.4c0.5,0.6,0.9,1.2,1.2,1.9c0,0,0-0.1,0-0.1c0.2-0.4,0.2-0.8,0.1-1.2
			c-0.1-0.2-0.1-0.3-0.2-0.4C22.2,12.3,21.9,12.2,21.5,12.4z M8.4,14.3c0.2-0.7,0.6-1.4,1.2-1.9c-0.3-0.1-0.5-0.1-0.8,0
			c-0.2,0.1-0.4,0.2-0.5,0.4c-0.2,0.3-0.2,0.7-0.1,1.1C8.2,14,8.3,14.1,8.4,14.3z"/>
		<path id="XMLID_314_" class="st1" d="M12.7,16.8c0.8,0.7,1.8,1.1,2.8,1.1c1.1,0,2-0.4,2.8-1.1c-0.1,0.1-0.1,0.3-0.2,0.4
			c-0.4,0.7-0.9,1.2-1.6,1.6c-0.3,0.2-0.7,0.3-1.1,0.3c-0.4,0-0.7-0.1-1-0.3C13.6,18.4,13,17.8,12.7,16.8
			C12.7,16.9,12.7,16.9,12.7,16.8z"/>
		<path id="XMLID_313_" class="st1" d="M12.7,15.7c-0.6,0-1.1-0.5-1.1-1.1c0-0.6,0.5-1.1,1.1-1.1c0.6,0,1.1,0.5,1.1,1.1
			C13.8,15.2,13.3,15.7,12.7,15.7z"/>
		<path id="XMLID_312_" class="st1" d="M18.3,15.7c-0.6,0-1.1-0.5-1.1-1.1c0-0.6,0.5-1.1,1.1-1.1c0.6,0,1.1,0.5,1.1,1.1
			C19.5,15.2,19,15.7,18.3,15.7z"/>
	</g>
	<rect id="XMLID_70_" x="31" y="0" class="st2" width="1" height="28"/>
</g>
</svg>
