<?xml version="1.0" encoding="utf-8"?>
<!-- Generator: Adobe Illustrator 19.0.0, SVG Export Plug-In . SVG Version: 6.00 Build 0)  -->
<svg version="1.1" id="Layer_1" xmlns="http://www.w3.org/2000/svg" xmlns:xlink="http://www.w3.org/1999/xlink" x="0px" y="0px"
	 width="90.8px" height="28px" viewBox="-1358.9 1973.6 90.8 28" style="enable-background:new -1358.9 1973.6 90.8 28;"
	 xml:space="preserve">
<style type="text/css">
	.st0{fill:#35465C;}
	.st1{opacity:0.15;enable-background:new    ;}
	.st2{fill:#FFFFFF;}
</style>
<path class="st0" d="M-1355.9,1973.6h84.8c1.7,0,3,1.5,3,3.5v21c0,2-1.3,3.5-3,3.5h-84.8c-1.7,0-3-1.5-3-3.5v-21
	C-1358.9,1975.1-1357.6,1973.6-1355.9,1973.6z"/>
<path class="st1" d="M-1330.8,1973.6h1v28h-1V1973.6z"/>
<g>
	<path class="st2" d="M-1316.9,1984.1h-2.9v-1h7v1h-2.9v8.5h-1.2V1984.1z"/>
	<path class="st2" d="M-1306.7,1990.7c0,0.7,0,1.3,0.1,1.9h-1.1l-0.1-1.1h0c-0.3,0.6-1,1.3-2.3,1.3c-1.1,0-2.4-0.6-2.4-3v-4h1.2v3.8
		c0,1.3,0.4,2.2,1.5,2.2c0.8,0,1.4-0.6,1.6-1.1c0.1-0.2,0.1-0.4,0.1-0.6v-4.2h1.2V1990.7z"/>
	<path class="st2" d="M-1304.6,1987.6c0-0.7,0-1.3-0.1-1.8h1.1l0.1,1.1h0c0.4-0.6,1-1.3,2.1-1.3c0.9,0,1.6,0.6,1.9,1.4h0
		c0.2-0.4,0.5-0.7,0.8-0.9c0.4-0.3,0.9-0.5,1.5-0.5c0.9,0,2.2,0.6,2.2,3v4h-1.2v-3.9c0-1.3-0.5-2.1-1.5-2.1c-0.7,0-1.3,0.5-1.5,1.1
		c-0.1,0.2-0.1,0.4-0.1,0.6v4.2h-1.2v-4.1c0-1.1-0.5-1.9-1.4-1.9c-0.8,0-1.3,0.6-1.5,1.2c-0.1,0.2-0.1,0.4-0.1,0.6v4.1h-1.2V1987.6z
		"/>
	<path class="st2" d="M-1292.9,1992.6c0-0.5,0.1-1.2,0.1-1.8v-8.2h1.2v4.3h0c0.4-0.8,1.2-1.3,2.3-1.3c1.7,0,2.9,1.4,2.9,3.5
		c0,2.4-1.5,3.7-3.1,3.7c-1,0-1.8-0.4-2.3-1.3h0l-0.1,1.1H-1292.9z M-1291.6,1989.9c0,0.2,0,0.3,0.1,0.5c0.2,0.9,1,1.5,1.9,1.5
		c1.3,0,2.1-1.1,2.1-2.6c0-1.4-0.7-2.5-2-2.5c-0.8,0-1.6,0.6-1.9,1.5c0,0.1-0.1,0.3-0.1,0.5V1989.9z"/>
	<path class="st2" d="M-1284.8,1982.6h1.2v10h-1.2V1982.6z"/>
	<path class="st2" d="M-1281.5,1987.9c0-0.8,0-1.5-0.1-2.1h1.1l0,1.3h0.1c0.3-0.9,1.1-1.5,1.9-1.5c0.1,0,0.2,0,0.4,0v1.2
		c-0.1,0-0.3,0-0.4,0c-0.9,0-1.5,0.7-1.7,1.6c0,0.2-0.1,0.4-0.1,0.6v3.6h-1.2V1987.9z"/>
</g>
<g>
	<path class="st2" d="M-1346.8,1978.7c1.1,0,2.1,0,3.2,0c0,1.5,0,2.9,0,4.4c1.7,0,3.3,0,5,0c0,1.1,0,2.2,0,3.4c-1.7,0-3.3,0-5,0
		c0,0.1,0,0.2,0,0.2c0,1.6,0,3.2,0,4.8c0,1.2,0.6,1.8,1.8,2c1.1,0.1,2.1,0,3-0.5c0.1,0,0.1-0.1,0.2-0.1c0,0.1,0,0.1,0,0.2
		c0,0.8,0,1.5,0,2.3c0,0.1,0,0.2-0.2,0.3c-1.6,0.6-3.2,0.9-5,0.8c-1-0.1-2-0.3-2.9-0.8c-1.2-0.7-1.8-1.7-1.8-3.1c0-2.1,0-4.1,0-6.2
		c0-0.1,0-0.2,0-0.3c-0.9,0-1.8,0-2.7,0c0-0.1,0-0.1,0-0.2c0-0.7,0-1.5,0-2.2c0-0.1,0-0.2,0.2-0.2c0.3-0.1,0.7-0.2,1-0.3
		c1.6-0.6,2.6-1.8,3-3.5c0-0.1,0.1-0.3,0.1-0.4C-1346.8,1979-1346.8,1978.9-1346.8,1978.7z"/>
</g>
</svg>
