<?xml version="1.0" encoding="utf-8"?>
<!-- Generator: Adobe Illustrator 19.0.0, SVG Export Plug-In . SVG Version: 6.00 Build 0)  -->
<svg version="1.1" id="Layer_1" xmlns="http://www.w3.org/2000/svg" xmlns:xlink="http://www.w3.org/1999/xlink" x="0px" y="0px"
	 width="90px" height="28px" viewBox="0 0 90 28" style="enable-background:new 0 0 90 28;" xml:space="preserve">
<style type="text/css">
	.st0{fill-rule:evenodd;clip-rule:evenodd;fill:#429CD6;}
	.st1{fill:#FFFFFF;}
	.st2{fill-rule:evenodd;clip-rule:evenodd;fill:#0A77BD;}
</style>
<g id="XMLID_1_">
	<path id="XMLID_24_" class="st0" d="M3,0h84c1.7,0,3,1.3,3,3v22c0,1.7-1.3,3-3,3H3c-1.7,0-3-1.3-3-3V3C0,1.3,1.3,0,3,0z"/>
	<g id="XMLID_18_">
		<path id="XMLID_39_" class="st1" d="M40.3,19.1h-1.2v-9H36v-1h7.5v1h-3.2V19.1z"/>
		<path id="XMLID_53_" class="st1" d="M50.9,19.1l-1.4-4.4c-0.1-0.3-0.2-0.9-0.5-1.8H49c-0.2,0.8-0.3,1.4-0.5,1.8l-1.4,4.4h-1.3
			l-2-7.5H45c0.5,1.9,0.9,3.3,1.1,4.3c0.3,1,0.4,1.6,0.4,2h0.1c0-0.3,0.1-0.6,0.2-1c0.1-0.4,0.2-0.7,0.3-1l1.4-4.3h1.2l1.3,4.3
			c0.3,0.8,0.4,1.4,0.5,2h0.1c0-0.2,0.1-0.4,0.1-0.8c0.1-0.3,0.6-2.2,1.4-5.5h1.2l-2.1,7.5H50.9z"/>
		<path id="XMLID_155_" class="st1" d="M55.6,9.5c0-0.3,0.1-0.5,0.2-0.6c0.1-0.1,0.3-0.2,0.5-0.2c0.2,0,0.3,0.1,0.5,0.2
			S57,9.3,57,9.5s-0.1,0.4-0.2,0.6c-0.1,0.1-0.3,0.2-0.5,0.2c-0.2,0-0.4-0.1-0.5-0.2C55.7,10,55.6,9.8,55.6,9.5z M56.8,19.1h-1.1
			v-7.5h1.1V19.1z"/>
		<path id="XMLID_158_" class="st1" d="M61.7,18.3c0.2,0,0.4,0,0.6,0c0.2,0,0.3-0.1,0.4-0.1V19c-0.1,0.1-0.3,0.1-0.5,0.1
			c-0.2,0-0.5,0.1-0.6,0.1c-1.4,0-2.2-0.8-2.2-2.3v-4.5h-1.1v-0.5l1.1-0.5l0.5-1.6h0.7v1.7h2.2v0.9h-2.2v4.4c0,0.5,0.1,0.8,0.3,1
			S61.3,18.3,61.7,18.3z"/>
		<path id="XMLID_160_" class="st1" d="M66.6,18.3c0.2,0,0.4,0,0.6,0c0.2,0,0.3-0.1,0.4-0.1V19c-0.1,0.1-0.3,0.1-0.5,0.1
			c-0.2,0-0.5,0.1-0.6,0.1c-1.4,0-2.2-0.8-2.2-2.3v-4.5h-1.1v-0.5l1.1-0.5l0.5-1.6h0.7v1.7h2.2v0.9h-2.2v4.4c0,0.5,0.1,0.8,0.3,1
			S66.2,18.3,66.6,18.3z"/>
		<path id="XMLID_162_" class="st1" d="M72.3,19.2c-1.1,0-2-0.3-2.6-1c-0.6-0.7-1-1.6-1-2.8c0-1.2,0.3-2.2,0.9-2.9
			c0.6-0.7,1.4-1.1,2.4-1.1c0.9,0,1.7,0.3,2.2,0.9c0.5,0.6,0.8,1.4,0.8,2.4v0.7h-5.2c0,0.9,0.2,1.5,0.7,2c0.4,0.5,1,0.7,1.8,0.7
			c0.8,0,1.6-0.2,2.4-0.5v1c-0.4,0.2-0.8,0.3-1.1,0.4C73.2,19.2,72.8,19.2,72.3,19.2z M72,12.4c-0.6,0-1.1,0.2-1.4,0.6
			c-0.4,0.4-0.6,0.9-0.6,1.6h3.9c0-0.7-0.2-1.3-0.5-1.6C73,12.6,72.6,12.4,72,12.4z"/>
		<path id="XMLID_165_" class="st1" d="M80.4,11.4c0.3,0,0.6,0,0.9,0.1l-0.2,1.1c-0.3-0.1-0.6-0.1-0.8-0.1c-0.6,0-1.1,0.2-1.6,0.7
			c-0.4,0.5-0.6,1.1-0.6,1.8v4H77v-7.5h0.9l0.1,1.4h0.1c0.3-0.5,0.6-0.9,1-1.1S79.9,11.4,80.4,11.4z"/>
	</g>
	<g id="XMLID_3_">
		<path id="XMLID_4_" class="st1" d="M7,18.1c1.4,0.1,2.7-0.2,3.9-1.1c-1.2-0.1-2-0.7-2.5-1.9c0.4,0.1,0.8,0.1,1.2-0.1
			c-0.6-0.1-1.1-0.5-1.5-1c-0.4-0.5-0.6-1.1-0.6-1.7c0.4,0.2,0.8,0.3,1.2,0.3c-0.6-0.4-1-1-1.1-1.6c-0.2-0.7-0.1-1.3,0.3-1.9
			c1.4,1.7,3.3,2.6,5.5,2.8c0-0.2,0-0.3,0-0.5c0-0.6,0.1-1.2,0.4-1.6c0.6-0.9,1.5-1.3,2.6-1.2c0.6,0.1,1.1,0.3,1.5,0.7
			c0.1,0.1,0.1,0.1,0.2,0.1c0.5-0.1,1-0.3,1.4-0.5c0,0,0.1,0,0.1-0.1c-0.1,0.3-0.2,0.6-0.4,0.8c-0.2,0.2-0.4,0.4-0.7,0.6
			c0.5,0,1-0.2,1.4-0.4c0,0,0,0,0,0c-0.2,0.3-0.4,0.5-0.7,0.8c-0.2,0.2-0.4,0.4-0.6,0.5c0,0-0.1,0.1-0.1,0.1c0,1.4-0.3,2.7-0.9,3.9
			c-0.8,1.5-2,2.7-3.6,3.4c-1.1,0.5-2.2,0.6-3.4,0.6c-1,0-1.9-0.3-2.8-0.7C7.6,18.5,7.3,18.3,7,18.1C7,18.1,7,18.1,7,18.1z"/>
	</g>
	<rect id="XMLID_2_" x="27" y="0" class="st2" width="1" height="28"/>
</g>
</svg>
