<?xml version="1.0" encoding="utf-8"?>
<!-- Generator: Adobe Illustrator 19.0.0, SVG Export Plug-In . SVG Version: 6.00 Build 0)  -->
<svg version="1.1" id="Layer_1" xmlns="http://www.w3.org/2000/svg" xmlns:xlink="http://www.w3.org/1999/xlink" x="0px" y="0px"
	 width="80px" height="28px" viewBox="0 0 80 28" style="enable-background:new 0 0 80 28;" xml:space="preserve">
<style type="text/css">
	.st0{fill-rule:evenodd;clip-rule:evenodd;fill:#675CA8;}
	.st1{fill:#FFFFFF;}
	.st2{fill-rule:evenodd;clip-rule:evenodd;fill:#504B93;}
</style>
<g id="XMLID_55_">
	<path id="XMLID_214_" class="st0" d="M3,0h74c1.7,0,3,1.3,3,3v22c0,1.7-1.3,3-3,3H3c-1.7,0-3-1.3-3-3V3C0,1.3,1.3,0,3,0z"/>
	<path id="XMLID_229_" class="st1" d="M14.3,5.8c-0.5,0-1,0-1.5,0.1C11.9,6,11,6.2,10.1,6.6C8.6,7.3,7.6,8.4,7.3,10
		C7.2,10.7,7.1,11.3,7,12c-0.1,1.3,0,2.7,0.3,4c0.3,1,0.9,2,1.8,2.6c0.4,0.3,1,0.4,1.2,0.5v0c0.1,0,0.1,0.1,0.1,0.1c0,0,0,0,0,0.1
		c0,0.9,0,2.5,0,2.5l0,0.4h0.4h0.3l0.1-0.1c0,0,1.6-1.6,2.2-2.2c0.1-0.1,0.2-0.2,0.2-0.2c0,0,0,0,0.1,0c0.8,0,1.5,0,2.3-0.1
		c1-0.1,2-0.2,3-0.6c0.9-0.4,1.6-1,2-1.8c0.4-0.9,0.7-1.9,0.8-2.9c0.1-1.7,0.1-3.3-0.4-5c-0.3-1-0.8-1.8-1.6-2.3
		c-1-0.7-2.1-0.9-3.2-1.1c-0.6-0.1-1.3-0.2-1.9-0.2C14.6,5.8,14.5,5.8,14.3,5.8z M14.8,6.5c0.6,0,1.2,0.1,1.8,0.2
		c1.1,0.2,2.1,0.4,2.9,1c0.7,0.5,1.1,1.1,1.4,1.9c0.4,1.5,0.5,3.1,0.3,4.7v0c-0.1,0.9-0.3,1.8-0.7,2.6h0c-0.4,0.7-0.9,1.2-1.7,1.5
		c-0.9,0.4-1.8,0.5-2.8,0.5c-0.8,0-1.5,0.1-2.3,0.1c-0.2,0-0.4,0.1-0.5,0.2c-0.1,0.1-0.2,0.2-0.3,0.3h0c-0.4,0.5-1.3,1.3-1.7,1.7
		c0-0.5,0-1.2,0-1.8c0-0.2,0-0.4-0.1-0.5c-0.1-0.1-0.2-0.2-0.4-0.3l0,0c-0.4-0.2-0.9-0.3-1.2-0.5c-0.8-0.5-1.3-1.3-1.5-2.2
		c-0.4-1.2-0.4-2.5-0.3-3.8c0.1-0.7,0.2-1.3,0.3-2c0.3-1.4,1.1-2.3,2.3-2.9c0.8-0.4,1.7-0.5,2.6-0.7C13.5,6.5,14.1,6.5,14.8,6.5z
		 M14.9,8.3c-0.3,0-0.6,0-0.9,0.1c-0.2,0-0.3,0.2-0.3,0.4c0,0.2,0.2,0.3,0.4,0.3C14.4,9,14.7,9,14.9,9c1.7,0,3.1,1.4,3.1,3.1
		c0,0.2,0,0.5-0.1,0.7c0,0.2,0.1,0.4,0.3,0.4c0.2,0,0.4-0.1,0.4-0.3c0.1-0.3,0.1-0.6,0.1-0.9C18.8,10,17,8.3,14.9,8.3z M11.4,9
		c-0.1,0-0.1,0-0.2,0c-0.6,0.1-1.3,0.6-1.3,1.5c0,0.1,0,0.2,0.1,0.3c0.2,0.5,0.4,1.1,0.7,1.5c1.3,2.4,3.2,4,5.7,5.1
		c0.3,0.1,0.6,0.2,0.9,0c0.4-0.2,0.8-0.4,1-0.8c0.3-0.5,0.3-0.9-0.2-1.3c-0.3-0.3-0.7-0.5-1-0.8c-0.5-0.4-1.1-0.4-1.5,0.2
		c0,0-0.1,0.1-0.1,0.1c-0.2,0.2-0.5,0.3-0.7,0.2c-1-0.4-1.8-1.1-2.3-2.1c-0.3-0.6-0.2-0.9,0.3-1.3c0.1,0,0.1-0.1,0.1-0.1
		c0.2-0.2,0.3-0.5,0.2-0.7c-0.3-0.6-0.7-1.2-1.2-1.7C11.7,9.1,11.5,9,11.4,9z M14.9,9.4c-0.2,0-0.3,0-0.5,0c-0.2,0-0.3,0.2-0.3,0.4
		c0,0.2,0.2,0.3,0.4,0.3c0,0,0,0,0,0c0.1,0,0.2,0,0.3,0c1.2,0,2.1,0.9,2.1,2.1c0,0.1,0,0.2,0,0.3c0,0.2,0.1,0.4,0.3,0.4
		s0.4-0.1,0.4-0.3c0,0,0,0,0,0c0-0.2,0-0.3,0-0.5C17.7,10.6,16.5,9.4,14.9,9.4z M14.9,10.4c-0.2,0-0.4,0.2-0.4,0.4
		c0,0.2,0.2,0.4,0.4,0.4c0,0,0,0,0,0c0.6,0,1.1,0.5,1.1,1.1c0,0.2,0.2,0.4,0.4,0.4s0.4-0.2,0.4-0.4c0,0,0,0,0,0
		C16.6,11.2,15.8,10.4,14.9,10.4z"/>
	<g id="XMLID_230_">
		<path id="XMLID_231_" class="st1" d="M45.1,9.3h1.3l-3.6,10h-1.1L38,9.3h1.2l2.3,6.5c0.3,0.7,0.5,1.5,0.6,2.2
			c0.2-0.7,0.4-1.5,0.6-2.2L45.1,9.3z"/>
		<path id="XMLID_233_" class="st1" d="M47.4,9.7c0-0.3,0.1-0.5,0.2-0.6C47.8,9,47.9,9,48.1,9c0.2,0,0.3,0.1,0.5,0.2
			s0.2,0.3,0.2,0.6s-0.1,0.4-0.2,0.6c-0.1,0.1-0.3,0.2-0.5,0.2c-0.2,0-0.4-0.1-0.5-0.2C47.5,10.2,47.4,10,47.4,9.7z M48.7,19.3h-1.1
			v-7.5h1.1V19.3z"/>
		<path id="XMLID_241_" class="st1" d="M54.6,11.6c1,0,1.7,0.3,2.3,1c0.5,0.7,0.8,1.6,0.8,2.9s-0.3,2.2-0.8,2.9
			c-0.5,0.7-1.3,1-2.3,1c-0.5,0-0.9-0.1-1.3-0.3c-0.4-0.2-0.7-0.5-1-0.8h-0.1l-0.2,1h-0.8V8.6h1.1v2.6c0,0.6,0,1.1-0.1,1.6h0.1
			C52.7,12,53.5,11.6,54.6,11.6z M54.4,12.6c-0.8,0-1.3,0.2-1.7,0.7c-0.3,0.4-0.5,1.2-0.5,2.2s0.2,1.8,0.5,2.3
			c0.4,0.5,0.9,0.7,1.7,0.7c0.7,0,1.2-0.3,1.6-0.8c0.3-0.5,0.5-1.2,0.5-2.2c0-1-0.2-1.7-0.5-2.2S55.1,12.6,54.4,12.6z"/>
		<path id="XMLID_248_" class="st1" d="M62.8,19.4c-1.1,0-2-0.3-2.6-1c-0.6-0.7-1-1.6-1-2.8c0-1.2,0.3-2.2,0.9-2.9
			c0.6-0.7,1.4-1.1,2.4-1.1c0.9,0,1.7,0.3,2.2,0.9c0.5,0.6,0.8,1.4,0.8,2.4v0.7h-5.2c0,0.9,0.2,1.5,0.7,2c0.4,0.5,1,0.7,1.8,0.7
			c0.8,0,1.6-0.2,2.4-0.5v1c-0.4,0.2-0.8,0.3-1.1,0.4C63.8,19.3,63.3,19.4,62.8,19.4z M62.5,12.6c-0.6,0-1.1,0.2-1.4,0.6
			c-0.4,0.4-0.6,0.9-0.6,1.6h3.9c0-0.7-0.2-1.3-0.5-1.6C63.6,12.8,63.1,12.6,62.5,12.6z"/>
		<path id="XMLID_251_" class="st1" d="M70.9,11.6c0.3,0,0.6,0,0.9,0.1l-0.2,1.1c-0.3-0.1-0.6-0.1-0.8-0.1c-0.6,0-1.1,0.2-1.6,0.7
			c-0.4,0.5-0.6,1.1-0.6,1.8v4h-1.1v-7.5h0.9l0.1,1.4h0.1c0.3-0.5,0.6-0.9,1-1.1S70.5,11.6,70.9,11.6z"/>
	</g>
	<rect id="XMLID_56_" x="29" class="st2" width="1" height="28"/>
</g>
</svg>
