<?xml version="1.0" encoding="utf-8"?>
<!-- Generator: Adobe Illustrator 19.0.0, SVG Export Plug-In . SVG Version: 6.00 Build 0)  -->
<svg version="1.1" id="Layer_1" xmlns="http://www.w3.org/2000/svg" xmlns:xlink="http://www.w3.org/1999/xlink" x="0px" y="0px"
	 width="111px" height="28px" viewBox="0 0 111 28" style="enable-background:new 0 0 111 28;" xml:space="preserve">
<style type="text/css">
	.st0{fill-rule:evenodd;clip-rule:evenodd;fill:#39B54A;}
	.st1{fill:#FFFFFF;}
	.st2{fill-rule:evenodd;clip-rule:evenodd;fill:#129C49;}
</style>
<g id="XMLID_96_">
	<path id="XMLID_131_" class="st0" d="M3,0h105c1.7,0,3,1.3,3,3v22c0,1.7-1.3,3-3,3H3c-1.7,0-3-1.3-3-3V3C0,1.3,1.3,0,3,0z"/>
	<g id="XMLID_129_">
		<path id="XMLID_254_" class="st1" d="M7,21C7,21,7,21,7,21C7,21,7,21,7,21c0.4-1.1,0.8-2.2,1.2-3.3c0,0,0,0,0-0.1
			c-0.1-0.1-0.1-0.2-0.2-0.3c-0.6-0.9-0.9-2-1-3c0-0.5,0-1,0.1-1.6c0.1-0.7,0.4-1.4,0.7-2.1c0.6-1.1,1.4-2,2.4-2.6
			c1-0.6,2.1-1,3.3-1.1c0.1,0,0.2,0,0.2,0c0.2,0,0.3,0,0.5,0c0,0,0,0,0,0c0.1,0,0.3,0,0.4,0c0.4,0,0.8,0.1,1.2,0.2
			c1,0.3,1.9,0.8,2.6,1.5c0.7,0.6,1.2,1.3,1.6,2.1c0.4,0.8,0.7,1.7,0.7,2.6c0,0.1,0,0.2,0,0.2c0,0.2,0,0.3,0,0.5c0,0,0,0,0,0.1
			c0,0.4-0.1,0.7-0.1,1.1c-0.1,0.7-0.4,1.4-0.8,2c-0.5,0.9-1.1,1.6-1.9,2.2c-0.6,0.5-1.3,0.8-2,1c-0.5,0.2-1,0.3-1.6,0.3
			c-0.4,0-0.8,0-1.2,0c-0.4,0-0.8-0.1-1.2-0.2c-0.5-0.2-1-0.4-1.5-0.6c0,0-0.1,0-0.1,0c-0.4,0.1-0.7,0.2-1.1,0.3
			c-0.8,0.2-1.5,0.4-2.3,0.6C7.2,21,7.1,21,7,21z M8.7,19.4C8.7,19.4,8.8,19.4,8.7,19.4c0.7-0.2,1.3-0.4,2-0.6c0.1,0,0.1,0,0.1,0
			c0.4,0.3,0.9,0.5,1.4,0.6c0.5,0.2,0.9,0.2,1.4,0.3c0.4,0,0.7,0,1.1,0c0.5-0.1,0.9-0.2,1.3-0.3c1-0.4,1.9-1,2.6-1.9
			c1-1.2,1.4-2.6,1.3-4.1c0-0.5-0.1-1-0.3-1.4c-0.4-1.1-1.1-2.1-2-2.8c-0.9-0.7-1.9-1.1-3.1-1.2c-0.4,0-0.8,0-1.2,0
			c-0.4,0-0.7,0.1-1.1,0.2c-1.1,0.4-2,1-2.8,1.9c-0.8,0.9-1.2,2-1.3,3.2c0,0.5,0,0.9,0,1.4c0.1,0.5,0.2,1,0.4,1.4
			c0.2,0.5,0.5,0.9,0.8,1.3c0,0,0,0.1,0,0.1c-0.2,0.5-0.4,1-0.6,1.5C8.8,19.2,8.8,19.3,8.7,19.4z"/>
		<path id="XMLID_247_" class="st1" d="M11.6,10.2c0.1,0,0.1,0,0.2,0c0.1,0,0.2,0,0.2,0.1c0,0.1,0.1,0.2,0.1,0.2
			c0.2,0.5,0.4,1,0.6,1.5c0,0.1,0,0.2,0,0.3c-0.1,0.3-0.3,0.5-0.5,0.7c0,0,0,0,0,0.1c-0.1,0.1-0.1,0.2,0,0.3
			c0.1,0.1,0.1,0.3,0.2,0.4c0.3,0.4,0.6,0.8,1,1.2c0.4,0.3,0.8,0.6,1.2,0.8c0.1,0,0.1,0.1,0.2,0.1c0.1,0.1,0.2,0,0.3-0.1
			c0.2-0.2,0.4-0.5,0.6-0.7c0,0,0-0.1,0.1-0.1c0.1-0.1,0.2-0.1,0.3-0.1c0.2,0.1,0.3,0.1,0.5,0.2c0.4,0.2,0.7,0.4,1.1,0.6
			c0.2,0.1,0.2,0.2,0.2,0.4c0,0.3-0.1,0.5-0.2,0.8c-0.1,0.2-0.2,0.3-0.3,0.4c-0.2,0.2-0.5,0.4-0.8,0.4c-0.2,0.1-0.5,0.1-0.7,0.1
			c-0.3,0-0.6-0.1-0.9-0.2c-0.4-0.1-0.7-0.3-1.1-0.5c-0.4-0.2-0.8-0.5-1.2-0.9c-0.6-0.6-1.1-1.2-1.6-1.9c-0.2-0.4-0.5-0.8-0.6-1.2
			c-0.1-0.3-0.2-0.6-0.2-0.9c0-0.6,0.2-1.1,0.6-1.6c0.1-0.1,0.2-0.2,0.3-0.3c0.1,0,0.1,0,0.2,0C11.5,10.2,11.6,10.2,11.6,10.2
			C11.6,10.2,11.6,10.2,11.6,10.2z"/>
	</g>
	<rect id="XMLID_97_" x="28" y="0" class="st2" width="1" height="28"/>
	<g id="XMLID_307_">
		<path id="XMLID_308_" class="st1" d="M46.9,17.6h-1.1l-2-6.7c-0.1-0.3-0.2-0.7-0.3-1.1S43.2,9.1,43.2,9c-0.1,0.6-0.3,1.3-0.5,2
			l-2,6.7h-1.1L37,7.6h1.2l1.6,6.2c0.2,0.9,0.4,1.7,0.5,2.4c0.1-0.8,0.3-1.6,0.5-2.4l1.8-6.1h1.2l1.9,6.1c0.2,0.7,0.4,1.5,0.6,2.4
			c0.1-0.6,0.3-1.4,0.5-2.4l1.6-6.2h1.2L46.9,17.6z"/>
		<path id="XMLID_315_" class="st1" d="M56.1,17.6v-4.8c0-0.6-0.1-1.1-0.4-1.4S55,11,54.4,11c-0.8,0-1.4,0.2-1.7,0.6
			c-0.4,0.4-0.5,1.1-0.5,2.1v3.9H51V7h1.1v3.2c0,0.4,0,0.7-0.1,1h0.1c0.2-0.4,0.5-0.6,1-0.9c0.4-0.2,0.9-0.3,1.4-0.3
			c0.9,0,1.6,0.2,2.1,0.7c0.5,0.4,0.7,1.1,0.7,2.1v4.9H56.1z"/>
		<path id="XMLID_317_" class="st1" d="M64.2,17.6L64,16.6h-0.1c-0.4,0.5-0.7,0.8-1.1,1c-0.4,0.2-0.8,0.2-1.4,0.2
			c-0.7,0-1.3-0.2-1.7-0.6c-0.4-0.4-0.6-0.9-0.6-1.6c0-1.5,1.2-2.3,3.6-2.4l1.3,0v-0.5c0-0.6-0.1-1-0.4-1.3
			c-0.3-0.3-0.7-0.4-1.2-0.4c-0.6,0-1.3,0.2-2.1,0.6l-0.3-0.9c0.4-0.2,0.8-0.4,1.2-0.5c0.4-0.1,0.9-0.2,1.3-0.2c0.9,0,1.6,0.2,2,0.6
			c0.4,0.4,0.6,1,0.6,1.9v5.1H64.2z M61.6,16.8c0.7,0,1.3-0.2,1.7-0.6c0.4-0.4,0.6-0.9,0.6-1.6V14l-1.1,0c-0.9,0-1.6,0.2-2,0.4
			c-0.4,0.2-0.6,0.6-0.6,1.2c0,0.4,0.1,0.7,0.4,0.9C60.8,16.7,61.2,16.8,61.6,16.8z"/>
		<path id="XMLID_321_" class="st1" d="M69.8,16.8c0.2,0,0.4,0,0.6,0c0.2,0,0.3-0.1,0.4-0.1v0.9c-0.1,0.1-0.3,0.1-0.5,0.1
			c-0.2,0-0.5,0.1-0.6,0.1c-1.4,0-2.2-0.8-2.2-2.3V11h-1.1v-0.5l1.1-0.5l0.5-1.6h0.7v1.7h2.2V11h-2.2v4.4c0,0.5,0.1,0.8,0.3,1
			C69.1,16.7,69.4,16.8,69.8,16.8z"/>
		<path id="XMLID_333_" class="st1" d="M77.1,15.6c0,0.7-0.3,1.2-0.8,1.6c-0.5,0.4-1.2,0.6-2.2,0.6c-1,0-1.8-0.2-2.3-0.5v-1.1
			c0.4,0.2,0.7,0.3,1.2,0.4c0.4,0.1,0.8,0.2,1.2,0.2c0.6,0,1-0.1,1.4-0.3c0.3-0.2,0.5-0.5,0.5-0.9c0-0.3-0.1-0.5-0.4-0.7
			c-0.3-0.2-0.7-0.5-1.5-0.7c-0.7-0.3-1.2-0.5-1.5-0.7c-0.3-0.2-0.5-0.4-0.7-0.7c-0.1-0.2-0.2-0.5-0.2-0.9c0-0.6,0.2-1.1,0.7-1.4
			c0.5-0.4,1.2-0.5,2-0.5c0.8,0,1.6,0.2,2.4,0.5l-0.4,0.9c-0.8-0.3-1.4-0.5-2-0.5c-0.5,0-0.9,0.1-1.2,0.3c-0.3,0.2-0.4,0.4-0.4,0.7
			c0,0.2,0.1,0.4,0.2,0.5c0.1,0.1,0.3,0.3,0.5,0.4c0.2,0.1,0.7,0.3,1.3,0.6c0.9,0.3,1.5,0.6,1.8,1C77,14.7,77.1,15.1,77.1,15.6z"/>
		<path id="XMLID_335_" class="st1" d="M85.4,17.6l-1.2-3.2h-4L79,17.6h-1.2l4-10h1l3.9,10H85.4z M83.8,13.4l-1.2-3.1
			c-0.2-0.4-0.3-0.9-0.5-1.4c-0.1,0.4-0.2,0.9-0.4,1.4l-1.2,3.1H83.8z"/>
		<path id="XMLID_338_" class="st1" d="M91.3,17.8c-0.5,0-0.9-0.1-1.3-0.3c-0.4-0.2-0.7-0.5-1-0.8h-0.1c0.1,0.4,0.1,0.9,0.1,1.2V21
			h-1.1V10.1h0.9l0.2,1H89c0.3-0.4,0.6-0.7,1-0.9c0.4-0.2,0.8-0.3,1.3-0.3c1,0,1.8,0.3,2.3,1c0.5,0.7,0.8,1.6,0.8,2.9
			c0,1.2-0.3,2.2-0.8,2.9C93.1,17.4,92.3,17.8,91.3,17.8z M91.2,11c-0.8,0-1.3,0.2-1.7,0.6s-0.5,1.1-0.5,2v0.3
			c0,1.1,0.2,1.8,0.5,2.3c0.4,0.5,0.9,0.7,1.7,0.7c0.6,0,1.2-0.3,1.5-0.8c0.4-0.5,0.5-1.2,0.5-2.2c0-0.9-0.2-1.7-0.5-2.1
			C92.3,11.2,91.8,11,91.2,11z"/>
		<path id="XMLID_341_" class="st1" d="M99.9,17.8c-0.5,0-0.9-0.1-1.3-0.3c-0.4-0.2-0.7-0.5-1-0.8h-0.1c0.1,0.4,0.1,0.9,0.1,1.2V21
			h-1.1V10.1h0.9l0.2,1h0.1c0.3-0.4,0.6-0.7,1-0.9c0.4-0.2,0.8-0.3,1.3-0.3c1,0,1.8,0.3,2.3,1c0.5,0.7,0.8,1.6,0.8,2.9
			c0,1.2-0.3,2.2-0.8,2.9C101.6,17.4,100.9,17.8,99.9,17.8z M99.7,11c-0.8,0-1.3,0.2-1.7,0.6s-0.5,1.1-0.5,2v0.3
			c0,1.1,0.2,1.8,0.5,2.3c0.4,0.5,0.9,0.7,1.7,0.7c0.6,0,1.2-0.3,1.5-0.8c0.4-0.5,0.5-1.2,0.5-2.2c0-0.9-0.2-1.7-0.5-2.1
			C100.9,11.2,100.4,11,99.7,11z"/>
	</g>
</g>
</svg>
